<?xml version="1.0" encoding="UTF-8"?>
<svg version="1.1" xmlns="http://www.w3.org/2000/svg" width="512" height="512">
<path d="M0 0 C1.2065625 0.0309375 1.2065625 0.0309375 2.4375 0.0625 C8.39453125 11.9765625 8.39453125 11.9765625 9.43994141 14.07519531 C10.34486935 15.87796414 11.27087298 17.67011529 12.19921875 19.4609375 C13.4375 22.0625 13.4375 22.0625 13.4375 24.0625 C16.04144628 24.37692728 18.64563628 24.68906411 21.25 25 C21.96865234 25.08701172 22.68730469 25.17402344 23.42773438 25.26367188 C25.76314233 25.54145168 28.09996936 25.80321323 30.4375 26.0625 C31.73554565 26.2167041 31.73554565 26.2167041 33.05981445 26.37402344 C43.26264174 27.47288774 55.16030822 28.14608782 64.4375 23.0625 C69.22099756 17.72038006 71.5576691 10.91474372 73.6574707 4.15380859 C74.4375 2.0625 74.4375 2.0625 76.4375 0.0625 C78.8046875 -0.04296875 78.8046875 -0.04296875 81.4375 1.0625 C83.20025328 3.44213914 84.35490239 6.05557767 85.5625 8.75 C85.89636719 9.45833984 86.23023438 10.16667969 86.57421875 10.89648438 C87.06728516 11.94352539 87.06728516 11.94352539 87.5703125 13.01171875 C87.89870117 13.69838623 88.22708984 14.38505371 88.56542969 15.0925293 C89.4375 17.0625 89.4375 17.0625 90.4609375 20.4375 C93.30250368 24.21127959 96.19090263 24.26205545 100.73046875 24.96289062 C101.78878906 25.09888672 102.84710938 25.23488281 103.9375 25.375 C106.03143564 25.6823316 108.12519443 25.99087118 110.21875 26.30078125 C111.6119043 26.4870105 111.6119043 26.4870105 113.03320312 26.67700195 C115.4375 27.0625 115.4375 27.0625 118.4375 28.0625 C118.7675 27.7325 119.0975 27.4025 119.4375 27.0625 C120.87301034 26.76647826 122.31986676 26.5249076 123.76953125 26.30859375 C124.65060547 26.17646484 125.53167969 26.04433594 126.43945312 25.90820312 C127.36693359 25.77349609 128.29441406 25.63878906 129.25 25.5 C130.16587891 25.36142578 131.08175781 25.22285156 132.02539062 25.08007812 C135.90345682 24.50670053 139.50377969 24.0625 143.4375 24.0625 C143.68371094 23.25425781 143.92992187 22.44601563 144.18359375 21.61328125 C145.69000695 17.34745696 147.55548209 13.33035691 149.5 9.25 C149.86416016 8.47462891 150.22832031 7.69925781 150.60351562 6.90039062 C153.30303935 1.19696065 153.30303935 1.19696065 154.4375 0.0625 C156.10367115 0.02186168 157.77138095 0.019779 159.4375 0.0625 C165.39453125 11.9765625 165.39453125 11.9765625 166.43994141 14.07519531 C167.34486935 15.87796414 168.27087298 17.67011529 169.19921875 19.4609375 C170.4375 22.0625 170.4375 22.0625 170.4375 24.0625 C174.62235927 24.56782298 178.80767376 25.06414485 182.99609375 25.5390625 C185.46075234 25.82041387 187.8966752 26.13522842 190.34765625 26.5234375 C198.15514376 27.63702526 205.49643734 26.13386153 213.1796875 24.75390625 C216.30845428 24.20381588 219.24941632 23.90115973 222.4375 24.0625 C222.52128906 23.41667969 222.60507812 22.77085938 222.69140625 22.10546875 C223.71689534 17.92297659 225.51909088 14.2477732 227.375 10.375 C227.91543945 9.21774414 227.91543945 9.21774414 228.46679688 8.03710938 C231.17630035 2.32369965 231.17630035 2.32369965 233.4375 0.0625 C236.0625 -0.0625 236.0625 -0.0625 238.4375 0.0625 C238.65027588 0.73829102 238.86305176 1.41408203 239.08227539 2.11035156 C243.06897868 15.17376335 243.06897868 15.17376335 252.16748047 24.51220703 C258.05866285 26.26611417 264.03108105 26.75843854 270.16015625 26.83325195 C272.4375 27.0625 272.4375 27.0625 275.4375 29.0625 C275.86401367 31.46630859 275.86401367 31.46630859 275.4375 34.0625 C273.8293457 35.88916016 273.8293457 35.88916016 271.61328125 37.6015625 C262.86073136 44.28072327 262.86073136 44.28072327 257.92675781 53.62988281 C258.02276956 58.63567188 259.22937424 63.31633095 260.89233398 68.02050781 C261.53475386 70.42677734 261.52397763 72.58293578 261.4375 75.0625 C262.54992065 75.03893433 262.54992065 75.03893433 263.68481445 75.01489258 C267.03979896 74.95259286 270.39466186 74.91352493 273.75 74.875 C274.91724609 74.84986328 276.08449219 74.82472656 277.28710938 74.79882812 C278.40537109 74.78916016 279.52363281 74.77949219 280.67578125 74.76953125 C281.70743408 74.7538208 282.73908691 74.73811035 283.80200195 74.72192383 C286.4375 75.0625 286.4375 75.0625 288.27050781 76.27050781 C290.68867943 79.98376717 289.9052108 84.71281322 289.875 89 C289.89498047 90.00224609 289.91496094 91.00449219 289.93554688 92.03710938 C289.93075009 99.2274894 289.93075009 99.2274894 287.84765625 102.75390625 C285.4375 104.0625 285.4375 104.0625 278.4375 104.0625 C278.4375 164.1225 278.4375 224.1825 278.4375 286.0625 C281.4075 286.7225 284.3775 287.3825 287.4375 288.0625 C289.16666782 288.59762561 290.8863877 289.1662373 292.5859375 289.7890625 C293.44574219 290.0984375 294.30554688 290.4078125 295.19140625 290.7265625 C296.05636719 291.04367187 296.92132813 291.36078125 297.8125 291.6875 C299.56873883 292.32983989 301.32649301 292.96805601 303.0859375 293.6015625 C304.23328369 294.02236084 304.23328369 294.02236084 305.40380859 294.45166016 C307.56245786 295.20633216 307.56245786 295.20633216 310.4375 295.0625 C312.15184085 292.98850556 312.15184085 292.98850556 313.8125 290.1875 C317.43058643 284.56606572 321.17933711 279.0671858 325.0625 273.625 C325.60052246 272.85623535 326.13854492 272.0874707 326.69287109 271.29541016 C329.89076531 266.82970593 333.0501326 263.37608228 337.4375 260.0625 C339.0762674 261.7012674 338.56745732 263.57664466 338.5703125 265.83203125 C338.57160156 266.80333984 338.57289063 267.77464844 338.57421875 268.77539062 C338.57035156 269.79826172 338.56648438 270.82113281 338.5625 271.875 C338.56636719 272.88626953 338.57023437 273.89753906 338.57421875 274.93945312 C338.57228516 276.4022168 338.57228516 276.4022168 338.5703125 277.89453125 C338.56918457 278.78889893 338.56805664 279.6832666 338.56689453 280.60473633 C338.44612026 282.89876391 338.08195753 284.86449665 337.4375 287.0625 C338.21351563 286.79695313 338.98953125 286.53140625 339.7890625 286.2578125 C365.72768281 277.77668844 392.33424027 279.84854743 416.75 291.875 C426.52988858 296.90301192 434.75918618 303.15474581 442.6875 310.75 C443.27362061 311.2968042 443.85974121 311.8436084 444.46362305 312.40698242 C446.078125 314.01171875 446.078125 314.01171875 448.4375 317.0625 C448.296875 319.95703125 448.296875 319.95703125 447.4375 322.0625 C441.28818212 322.20414009 435.45307433 321.66924032 429.3671875 320.8203125 C427.930905 320.62766312 427.930905 320.62766312 426.46560669 320.43112183 C423.41387472 320.02155175 420.36311274 319.6053192 417.3125 319.1875 C405.38137367 317.55514645 393.46265481 315.97878509 381.46875 314.87890625 C380.5819455 314.79710114 379.69514099 314.71529602 378.78146362 314.63101196 C368.64978814 313.74773769 358.50963853 313.41806922 348.4375 315.0625 C349.12714844 315.5471875 349.81679688 316.031875 350.52734375 316.53125 C375.64525355 334.44800322 391.01883198 358.57487046 396.9140625 388.91796875 C397.64340341 393.29945704 398.20051954 397.62652194 398.4375 402.0625 C398.499375 403.20525391 398.499375 403.20525391 398.5625 404.37109375 C398.76351673 412.02229291 397.56455399 419.51526347 396.4375 427.0625 C393.37282252 426.76006685 391.88283415 426.59387638 389.86303711 424.18383789 C389.4222583 423.37164795 388.98147949 422.55945801 388.52734375 421.72265625 C388.02187012 420.81402832 387.51639648 419.90540039 386.99560547 418.96923828 C386.48143066 418.01001465 385.96725586 417.05079102 385.4375 416.0625 C384.39835631 414.20634722 383.35797212 412.35088842 382.31640625 410.49609375 C381.21079715 408.49747347 380.10533453 406.49877215 379 404.5 C367.88799196 384.55556107 356.109191 365.0551186 343.4375 346.0625 C342.97520996 345.36511719 342.51291992 344.66773438 342.03662109 343.94921875 C340.7833694 342.06407929 339.51976644 340.18654342 338.25 338.3125 C337.20779297 336.77335938 337.20779297 336.77335938 336.14453125 335.203125 C335.58121094 334.49671875 335.01789063 333.7903125 334.4375 333.0625 C333.7775 333.0625 333.1175 333.0625 332.4375 333.0625 C333.03161848 338.74056379 334.08583088 344.02085674 335.625 349.51171875 C336.07672068 351.1625811 336.52837809 352.81346076 336.97998047 354.46435547 C337.21763123 355.32526794 337.45528198 356.18618042 337.70013428 357.07318115 C341.76043136 371.81305774 345.67231266 386.58817407 349.3125 401.4375 C349.49996796 402.19605286 349.68743591 402.95460571 349.88058472 403.73614502 C351.79869172 411.53074546 353.56075584 419.30093942 354.82421875 427.23046875 C355.02869629 428.48617676 355.23317383 429.74188477 355.44384766 431.03564453 C355.80252412 433.35050902 356.12891588 435.67071832 356.41552734 437.99560547 C357.06762498 443.43938054 357.06762498 443.43938054 360.28930664 447.57055664 C362.39968075 448.6651771 362.39968075 448.6651771 364.54736328 449.36376953 C368.63610675 450.87526318 370.19776687 454.62584323 372.1875 458.25 C373.99006766 462.69763976 373.88652572 467.33909488 373.4375 472.0625 C373.1075 472.7225 372.7775 473.3825 372.4375 474.0625 C373.118125 473.93875 373.79875 473.815 374.5 473.6875 C379.02880438 474.26564524 381.50048757 476.67310414 384.4375 480.0625 C387.70109629 485.24417482 389.7700439 490.91229737 388.4375 497.0625 C386.30326761 502.56257715 383.609496 507.85341861 379.4375 512.0625 C376.76878921 512.56318995 374.7306592 512.73143757 372.06363487 512.68332577 C371.31504589 512.68969418 370.56645691 512.6960626 369.79518342 512.70262399 C367.27221375 512.71793431 364.75079223 512.69742152 362.22787476 512.67723083 C360.40680549 512.68084159 358.58573946 512.6866427 356.76468337 512.69445282 C351.74930529 512.70955588 346.73443534 512.69334569 341.71909714 512.6721462 C336.31483896 512.65470919 330.91063291 512.66602574 325.50636292 512.67381287 C314.91556426 512.68450241 304.32496389 512.66850935 293.73419546 512.6436746 C281.41167393 512.61579613 269.08919299 512.61440179 256.76664515 512.61423159 C234.7877469 512.61304336 212.80893998 512.58804416 190.83007812 512.54956055 C169.48142802 512.51220436 148.13286281 512.49096454 126.78417969 512.48803711 C125.46909634 512.4878543 124.15401299 512.48767149 122.79907863 512.48748314 C121.48631378 512.48730417 120.17354892 512.4871252 118.82100332 512.4869408 C116.17810019 512.4865754 113.53519706 512.48620302 110.89229393 512.48582363 C108.93742051 512.48554536 108.93742051 512.48554536 106.9430547 512.48526147 C86.62680866 512.4816948 66.31057296 512.46324619 45.99433737 512.44333039 C38.61963186 512.43629793 31.24492879 512.43152091 23.87022065 512.42836904 C12.17531436 512.42332875 0.48045442 512.41195214 -11.21442796 512.38706874 C-16.56141803 512.37581508 -21.90836234 512.36773414 -27.25536537 512.36820221 C-32.1429397 512.36850893 -37.03040554 512.35965513 -41.91795151 512.34323419 C-43.69308622 512.33889056 -45.46823299 512.33796335 -47.24337097 512.34066027 C-49.64248321 512.34379271 -52.04124163 512.33480616 -54.44031715 512.32256222 C-55.14143608 512.32638701 -55.842555 512.3302118 -56.56491995 512.33415249 C-61.33418549 512.29081451 -61.33418549 512.29081451 -63.5625 510.0625 C-63.82128906 507.93945312 -63.82128906 507.93945312 -63.828125 505.34375 C-63.83070312 504.41175781 -63.83328125 503.47976563 -63.8359375 502.51953125 C-63.82820313 501.54371094 -63.82046875 500.56789063 -63.8125 499.5625 C-63.82023437 498.58667969 -63.82796875 497.61085938 -63.8359375 496.60546875 C-63.83335938 495.67347656 -63.83078125 494.74148438 -63.828125 493.78125 C-63.82586914 492.92466797 -63.82361328 492.06808594 -63.82128906 491.18554688 C-63.5625 489.0625 -63.5625 489.0625 -61.5625 487.0625 C-57.6025 487.0625 -53.6425 487.0625 -49.5625 487.0625 C-49.5625 360.6725 -49.5625 234.2825 -49.5625 104.0625 C-51.8725 104.0625 -54.1825 104.0625 -56.5625 104.0625 C-58.47509766 102.88867188 -58.47509766 102.88867188 -59.5625 101.0625 C-59.95068359 98.65820312 -59.95068359 98.65820312 -59.9609375 95.84375 C-59.96480469 94.82925781 -59.96867187 93.81476563 -59.97265625 92.76953125 C-59.96105469 91.71121094 -59.94945312 90.65289062 -59.9375 89.5625 C-59.94910156 88.50417969 -59.96070313 87.44585937 -59.97265625 86.35546875 C-59.96685547 84.83373047 -59.96685547 84.83373047 -59.9609375 83.28125 C-59.95586182 81.8880957 -59.95586182 81.8880957 -59.95068359 80.46679688 C-59.5625 78.0625 -59.5625 78.0625 -58.46606445 76.26831055 C-55.58657732 74.44430299 -53.09007079 74.62215339 -49.70703125 74.55078125 C-49.04539474 74.53283005 -48.38375824 74.51487885 -47.70207214 74.49638367 C-45.59311253 74.44229102 -43.48437901 74.40839069 -41.375 74.375 C-39.94332792 74.34182573 -38.51168567 74.30733595 -37.08007812 74.27148438 C-33.5744361 74.18656743 -30.06871527 74.11975079 -26.5625 74.0625 C-26.05744737 71.16746617 -25.5582978 68.27162047 -25.0625 65.375 C-24.91941406 64.55837891 -24.77632812 63.74175781 -24.62890625 62.90039062 C-24.49355469 62.10439453 -24.35820313 61.30839844 -24.21875 60.48828125 C-24.09306641 59.76036377 -23.96738281 59.03244629 -23.83789062 58.2824707 C-23.09239663 53.37757929 -23.09239663 53.37757929 -25.01538086 48.99780273 C-25.67932861 48.33723877 -26.34327637 47.6766748 -27.02734375 46.99609375 C-27.74470703 46.26326172 -28.46207031 45.53042969 -29.20117188 44.77539062 C-30.3390918 43.64907227 -30.3390918 43.64907227 -31.5 42.5 C-32.99480584 41.00519416 -34.48338359 39.50412718 -35.96484375 37.99609375 C-36.62991943 37.33665771 -37.29499512 36.67722168 -37.98022461 35.99780273 C-39.67644418 33.9231333 -40.44142465 32.7447069 -40.5625 30.0625 C-39.0998259 27.94964682 -38.0112578 27.20033978 -35.55712891 26.4465332 C-34.43443604 26.28157349 -34.43443604 26.28157349 -33.2890625 26.11328125 C-32.4640625 25.98759766 -31.6390625 25.86191406 -30.7890625 25.73242188 C-29.93054687 25.61447266 -29.07203125 25.49652344 -28.1875 25.375 C-26.91132812 25.18067383 -26.91132812 25.18067383 -25.609375 24.98242188 C-21.56839158 24.38760422 -17.65865746 23.88550554 -13.5625 24.0625 C-13.31628906 23.25425781 -13.07007813 22.44601563 -12.81640625 21.61328125 C-11.30999305 17.34745696 -9.44451791 13.33035691 -7.5 9.25 C-7.13583984 8.47462891 -6.77167969 7.69925781 -6.39648438 6.90039062 C-3.16698076 0.07724343 -3.16698076 0.07724343 0 0 Z M-0.5625 12.0625 C-1.90207921 14.85121177 -3.23308435 17.64393062 -4.5625 20.4375 C-4.9440625 21.2315625 -5.325625 22.025625 -5.71875 22.84375 C-6.0796875 23.60429687 -6.440625 24.36484375 -6.8125 25.1484375 C-7.31523438 26.2010376 -7.31523438 26.2010376 -7.828125 27.27490234 C-8.68916664 29.04873448 -8.68916664 29.04873448 -8.5625 31.0625 C-9.68269531 31.18367188 -10.80289063 31.30484375 -11.95703125 31.4296875 C-13.42973636 31.59853267 -14.90239004 31.76782697 -16.375 31.9375 C-17.11298828 32.01613281 -17.85097656 32.09476563 -18.61132812 32.17578125 C-22.27756181 32.60710286 -24.44201745 32.9821783 -27.5625 35.0625 C-25.75027319 37.04191743 -23.93773172 39.02104505 -22.125 41 C-21.3505957 41.84594727 -21.3505957 41.84594727 -20.56054688 42.70898438 C-18.10025333 45.42248326 -18.10025333 45.42248326 -15.5625 48.0625 C-15.62835064 49.71175924 -15.7671075 51.35824522 -15.9375 53 C-16.03675781 53.98484375 -16.13601562 54.9696875 -16.23828125 55.984375 C-16.34527344 57.00015625 -16.45226563 58.0159375 -16.5625 59.0625 C-16.75057307 60.95827657 -16.93811898 62.85410555 -17.125 64.75 C-17.27032018 66.18755197 -17.41595102 67.62507278 -17.5625 69.0625 C-16.60988281 68.56878906 -15.65726563 68.07507813 -14.67578125 67.56640625 C-13.40901829 66.91894963 -12.14208199 66.27183206 -10.875 65.625 C-10.24916016 65.29951172 -9.62332031 64.97402344 -8.97851562 64.63867188 C-2.01979542 61.10466214 -2.01979542 61.10466214 1.4375 61.0625 C4.3516898 62.11647224 7.02764741 63.5281293 9.75 65 C10.49056641 65.38607422 11.23113281 65.77214844 11.99414062 66.16992188 C13.81520259 67.12157361 15.62727954 68.09038396 17.4375 69.0625 C17.293125 68.04929688 17.14875 67.03609375 17 65.9921875 C16.81228709 64.64065455 16.62479904 63.28909036 16.4375 61.9375 C16.29441406 60.93976562 16.29441406 60.93976562 16.1484375 59.921875 C14.66134292 49.08732877 14.66134292 49.08732877 17.046875 45.9375 C18.10648438 45.009375 18.10648438 45.009375 19.1875 44.0625 C22.58610772 40.92903189 25.06536641 38.01605598 27.4375 34.0625 C26.15875 33.77375 24.88 33.485 23.5625 33.1875 C22.74136719 32.98382813 21.92023438 32.78015625 21.07421875 32.5703125 C18.46864937 31.97270624 18.46864937 31.97270624 15.89453125 32.1171875 C12.68372218 32.04749552 11.1725662 31.82169458 8.4375 30.0625 C4.82732308 24.57711304 2.62510758 18.22082872 0.4375 12.0625 C0.1075 12.0625 -0.2225 12.0625 -0.5625 12.0625 Z M156.4375 12.0625 C155.09792079 14.85121177 153.76691565 17.64393062 152.4375 20.4375 C152.0559375 21.2315625 151.674375 22.025625 151.28125 22.84375 C150.9203125 23.60429687 150.559375 24.36484375 150.1875 25.1484375 C149.68476563 26.2010376 149.68476563 26.2010376 149.171875 27.27490234 C148.31083336 29.04873448 148.31083336 29.04873448 148.4375 31.0625 C147.31730469 31.18367188 146.19710937 31.30484375 145.04296875 31.4296875 C143.57026364 31.59853267 142.09760996 31.76782697 140.625 31.9375 C139.88701172 32.01613281 139.14902344 32.09476563 138.38867188 32.17578125 C134.72243819 32.60710286 132.55798255 32.9821783 129.4375 35.0625 C130.31535156 35.86171875 131.19320312 36.6609375 132.09765625 37.484375 C141.06177499 46.07790122 141.06177499 46.07790122 142.046875 51.28125 C141.74985595 54.31397087 141.18371625 57.11043573 140.4375 60.0625 C140.22408453 61.80952893 140.03385047 63.55966721 139.875 65.3125 C139.6584375 67.16875 139.6584375 67.16875 139.4375 69.0625 C140.53449219 68.47339844 141.63148438 67.88429687 142.76171875 67.27734375 C144.21575982 66.51749003 145.67020856 65.75841608 147.125 65 C147.84623047 64.61005859 148.56746094 64.22011719 149.31054688 63.81835938 C154.66969557 61.05313653 154.66969557 61.05313653 158 61.09375 C161.34736688 62.42411376 164.55755308 63.96466458 167.75 65.625 C168.39517578 65.95435547 169.04035156 66.28371094 169.70507812 66.62304688 C171.28535228 67.43074255 172.86182105 68.24587613 174.4375 69.0625 C174.293125 67.96550781 174.14875 66.86851563 174 65.73828125 C173.81233474 64.28387548 173.62484394 62.82944719 173.4375 61.375 C173.34210938 60.65376953 173.24671875 59.93253906 173.1484375 59.18945312 C172.96809767 57.77893801 172.80040201 56.36674075 172.64624023 54.953125 C172.47799343 53.42926157 172.26377428 51.91051296 172.03515625 50.39453125 C172.66634924 46.73606315 175.23157912 44.82214734 177.875 42.4375 C181.95655233 38.83032763 181.95655233 38.83032763 184.4375 34.0625 C178.09976532 32.52917709 171.93600211 31.57803879 165.4375 31.0625 C165.17195313 30.21429687 164.90640625 29.36609375 164.6328125 28.4921875 C163.39309534 24.93509054 161.91267384 21.59656601 160.3125 18.1875 C159.77367187 17.03507812 159.23484375 15.88265625 158.6796875 14.6953125 C158.26976562 13.82648437 157.85984375 12.95765625 157.4375 12.0625 C157.1075 12.0625 156.7775 12.0625 156.4375 12.0625 Z M77.4375 13.0625 C77.08042969 14.24328125 76.72335938 15.4240625 76.35546875 16.640625 C72.1304335 28.62490133 72.1304335 28.62490133 67.19384766 31.26025391 C61.72869816 33.04381928 56.15129935 33.65354864 50.4375 34.0625 C51.36357167 35.17359662 52.29415695 36.280932 53.2265625 37.38671875 C54.00314209 38.31230591 54.00314209 38.31230591 54.79541016 39.2565918 C56.36576174 40.98360498 57.9955474 42.41593626 59.8125 43.875 C62.37227459 46.40804065 62.83496791 48.10176866 62.875 51.6875 C62.7628693 53.48159128 62.61390691 55.27358485 62.4375 57.0625 C62.35628906 58.155625 62.27507812 59.24875 62.19140625 60.375 C61.96916386 63.27440839 61.71600486 66.16803874 61.4375 69.0625 C62.45070313 68.47339844 63.46390625 67.88429687 64.5078125 67.27734375 C65.85888844 66.51736353 67.21047847 65.75829672 68.5625 65 C69.22765625 64.61005859 69.8928125 64.22011719 70.578125 63.81835938 C73.77146353 62.04950029 75.79586041 61.05595266 79.5 61.09375 C83.02487399 62.25620844 86.07606996 63.8086362 89.3125 65.625 C90.46492188 66.26566406 91.61734375 66.90632813 92.8046875 67.56640625 C93.67351562 68.06011719 94.54234375 68.55382812 95.4375 69.0625 C95.34436523 68.45889648 95.25123047 67.85529297 95.15527344 67.23339844 C92.78662598 50.30434591 92.78662598 50.30434591 95.56787109 44.84277344 C98.62197567 40.8818394 102.35167098 37.90638099 106.4375 35.0625 C103.25265938 32.93927292 101.59055599 32.91134531 97.88867188 32.68286133 C89.01837503 31.9244307 89.01837503 31.9244307 85.90771484 28.26074219 C83.04357827 23.47751598 81.17287802 18.34284431 79.4375 13.0625 C78.7775 13.0625 78.1175 13.0625 77.4375 13.0625 Z M235.4375 13.0625 C235.00824219 14.24328125 234.57898438 15.4240625 234.13671875 16.640625 C229.18728106 28.62490133 229.18728106 28.62490133 224.14648438 31.26025391 C218.69232741 33.02687172 213.13645808 33.65087637 207.4375 34.0625 C211.30961401 38.74375322 211.30961401 38.74375322 215.625 43.00390625 C217.77960391 44.93097656 219.14289212 46.46079606 220.4375 49.0625 C220.43324858 52.77398691 219.90019008 56.07029433 219.12109375 59.6953125 C218.46563658 62.92390727 218.32277203 65.78028244 218.4375 69.0625 C219.45070313 68.47339844 220.46390625 67.88429687 221.5078125 67.27734375 C222.85888844 66.51736353 224.21047847 65.75829672 225.5625 65 C226.22765625 64.61005859 226.8928125 64.22011719 227.578125 63.81835938 C230.79037401 62.03902536 232.81155176 61.05698156 236.5390625 61.08984375 C239.9290326 62.22744827 242.66429321 63.78090476 245.6875 65.6875 C247.56843543 66.87127279 249.47863874 68.01269112 251.4375 69.0625 C252.0975 68.7325 252.7575 68.4025 253.4375 68.0625 C253.293125 67.30066406 253.14875 66.53882813 253 65.75390625 C252.61328863 63.60282424 252.25821996 61.44588898 251.9296875 59.28515625 C251.4994144 56.18919058 251.4994144 56.18919058 250.8828125 53.68359375 C250.47889463 51.0088693 250.50056849 49.63273103 251.4375 47.0625 C254.88738096 42.55210007 259.18896421 38.79893549 263.4375 35.0625 C260.25265938 32.93927292 258.59055599 32.91134531 254.88867188 32.68286133 C246.01837503 31.9244307 246.01837503 31.9244307 242.90771484 28.26074219 C240.04357827 23.47751598 238.17287802 18.34284431 236.4375 13.0625 C236.1075 13.0625 235.7775 13.0625 235.4375 13.0625 Z M36.36328125 36.00390625 C34.57554357 37.79698844 32.7986616 39.60094198 31.03125 41.4140625 C29.52876204 42.94822943 27.99931697 44.45855005 26.40625 45.8984375 C23.87514664 48.34596669 22.53235212 49.93859185 22.23046875 53.515625 C22.45047226 56.42133174 22.8998421 59.19872495 23.4375 62.0625 C23.6025 63.16464844 23.7675 64.26679687 23.9375 65.40234375 C24.30429483 70.61418097 24.30429483 70.61418097 26.4375 75.0625 C28.36417507 75.14998207 30.29401861 75.16947334 32.22265625 75.16015625 C33.39248047 75.15693359 34.56230469 75.15371094 35.76757812 75.15039062 C36.99927734 75.14201172 38.23097656 75.13363281 39.5 75.125 C40.73556641 75.12048828 41.97113281 75.11597656 43.24414062 75.11132812 C46.30864117 75.09949608 49.37304721 75.08301173 52.4375 75.0625 C52.91979332 72.56306796 53.39839426 70.06301757 53.875 67.5625 C54.00970703 66.86640625 54.14441406 66.1703125 54.28320312 65.453125 C54.55251345 64.0343194 54.80485634 62.61219863 55.04101562 61.1875 C55.4375 59.0625 55.4375 59.0625 56.05273438 57.0625 C56.62802705 54.82352312 56.83355784 53.34998618 56.4375 51.0625 C54.08718829 47.58576634 51.15094422 44.88217139 48.0625 42.0625 C47.25554687 41.28777344 46.44859375 40.51304688 45.6171875 39.71484375 C41.31014724 34.39574809 41.31014724 34.39574809 36.36328125 36.00390625 Z M117.4375 34.0625 C110.95904158 38.76843973 104.22793787 43.87330701 100.4375 51.0625 C99.33912088 59.47647399 102.17151617 66.96970062 104.4375 75.0625 C113.3475 75.0625 122.2575 75.0625 131.4375 75.0625 C132.18 70.5146875 132.18 70.5146875 132.9375 65.875 C133.09412109 64.92858643 133.25074219 63.98217285 133.41210938 63.00708008 C133.78307468 60.69566197 134.11564454 58.38121556 134.4375 56.0625 C134.57414062 55.15886719 134.71078125 54.25523438 134.8515625 53.32421875 C134.19317912 49.72795484 131.78463255 47.58586846 129.3125 45.0625 C128.838125 44.55460937 128.36375 44.04671875 127.875 43.5234375 C124.6083755 40.0802387 121.12947724 37.0423748 117.4375 34.0625 Z M194.0546875 35.3125 C190.1825256 39.20202585 186.49331112 43.19886646 182.91796875 47.36328125 C181.80578828 48.63979445 180.63466986 49.86533014 179.4375 51.0625 C179.56823146 53.85242815 179.81442174 56.49155258 180.1875 59.25 C180.27515625 59.99314453 180.3628125 60.73628906 180.453125 61.50195312 C181.05781589 66.29328859 182.07763131 70.30295959 183.4375 75.0625 C192.0175 75.0625 200.5975 75.0625 209.4375 75.0625 C210.118125 71.68 210.79875 68.2975 211.5 64.8125 C211.71793213 63.75256836 211.93586426 62.69263672 212.16040039 61.60058594 C212.32531982 60.75786133 212.49023926 59.91513672 212.66015625 59.046875 C212.91937866 57.75861816 212.91937866 57.75861816 213.18383789 56.44433594 C213.45508032 53.89742435 213.38507552 52.43578822 212.4375 50.0625 C210.87040902 48.06764681 210.87040902 48.06764681 208.875 46.171875 C208.16085937 45.46289062 207.44671875 44.75390625 206.7109375 44.0234375 C205.96070313 43.29382812 205.21046875 42.56421875 204.4375 41.8125 C203.68726563 41.06742188 202.93703125 40.32234375 202.1640625 39.5546875 C198.51093037 34.80375317 198.51093037 34.80375317 194.0546875 35.3125 Z M148.34375 72.51171875 C147.40015625 73.27935547 147.40015625 73.27935547 146.4375 74.0625 C146.4375 74.3925 146.4375 74.7225 146.4375 75.0625 C153.6975 75.0625 160.9575 75.0625 168.4375 75.0625 C167.1175 74.0725 165.7975 73.0825 164.4375 72.0625 C163.84710938 71.60746094 163.25671875 71.15242188 162.6484375 70.68359375 C156.79263338 66.90846897 153.83340696 68.78305115 148.34375 72.51171875 Z M-11.5625 74.0625 C-11.5625 74.3925 -11.5625 74.7225 -11.5625 75.0625 C-3.9725 75.0625 3.6175 75.0625 11.4375 75.0625 C10.1175 74.0725 8.7975 73.0825 7.4375 72.0625 C6.85871094 71.60746094 6.27992187 71.15242188 5.68359375 70.68359375 C-1.03584344 66.28620829 -5.5069411 69.92156634 -11.5625 74.0625 Z M71.6875 71.5625 C70.48867187 72.25859375 70.48867187 72.25859375 69.265625 72.96875 C68.66234375 73.3296875 68.0590625 73.690625 67.4375 74.0625 C67.4375 74.3925 67.4375 74.7225 67.4375 75.0625 C74.6975 75.0625 81.9575 75.0625 89.4375 75.0625 C82.9736914 69.89145312 79.37233217 67.04201049 71.6875 71.5625 Z M228.6875 71.5625 C227.48867188 72.25859375 227.48867188 72.25859375 226.265625 72.96875 C225.66234375 73.3296875 225.0590625 73.690625 224.4375 74.0625 C224.4375 74.3925 224.4375 74.7225 224.4375 75.0625 C231.6975 75.0625 238.9575 75.0625 246.4375 75.0625 C239.9736914 69.89145312 236.37233217 67.04201049 228.6875 71.5625 Z M-52.5625 83.0625 C-52.5625 87.3525 -52.5625 91.6425 -52.5625 96.0625 C57.6575 96.0625 167.8775 96.0625 281.4375 96.0625 C281.4375 91.7725 281.4375 87.4825 281.4375 83.0625 C171.2175 83.0625 60.9975 83.0625 -52.5625 83.0625 Z M-41.5625 104.0625 C-41.5625 230.1225 -41.5625 356.1825 -41.5625 486.0625 C-4.6025 486.0625 32.3575 486.0625 70.4375 486.0625 C70.51097656 468.55574219 70.51097656 468.55574219 70.5859375 450.6953125 C70.62130373 443.32160697 70.65717024 435.94790957 70.6953125 428.57421875 C70.75582077 416.85857961 70.81422844 405.14295584 70.859375 393.42724609 C70.89225912 384.89612329 70.9320703 376.36506615 70.98029006 367.83401573 C71.00559079 363.31457977 71.02736139 358.79518757 71.04084396 354.27569962 C71.05363205 350.02563879 71.07565084 345.77572778 71.10488319 341.52574921 C71.11398454 339.96242513 71.11965512 338.39907691 71.12171364 336.83572769 C71.12501826 334.70803155 71.14044576 332.58076486 71.1590271 330.45315552 C71.16732324 328.66395534 71.16732324 328.66395534 71.17578697 326.8386097 C71.4375 324.0625 71.4375 324.0625 73.4375 322.0625 C76.07692486 321.86406386 78.61142338 321.78975118 81.25195312 321.80371094 C82.05857895 321.8002063 82.86520477 321.79670166 83.6962738 321.79309082 C86.37051932 321.78426687 89.04450166 321.79012495 91.71875 321.796875 C93.57198131 321.79552854 95.42521228 321.79358817 97.27844238 321.79107666 C101.16564288 321.7881245 105.05275157 321.79242599 108.93994141 321.80175781 C113.93046628 321.8131524 118.92077605 321.80659342 123.91129303 321.79461288 C127.7390506 321.78739676 131.56675691 321.78968107 135.39451599 321.79486847 C137.23498052 321.79620565 139.07544966 321.79455485 140.91590881 321.78990936 C143.48508082 321.78484818 146.05390116 321.79254848 148.62304688 321.80371094 C149.38882553 321.79966248 150.15460419 321.79561401 150.94358826 321.79144287 C156.20897148 321.83397148 156.20897148 321.83397148 158.4375 324.0625 C158.69921303 326.8386097 158.69921303 326.8386097 158.7159729 330.45315552 C158.7217653 331.11639985 158.7275577 331.77964418 158.73352563 332.46298683 C158.75059298 334.69558799 158.75340784 336.9279833 158.75634766 339.16064453 C158.76564121 340.75698355 158.77580902 342.35331769 158.78678894 343.949646 C158.81416769 348.29235388 158.82926157 352.63502919 158.84221697 356.97780085 C158.85781318 361.51289783 158.8846145 366.04792794 158.9102478 370.58297729 C158.95709793 379.17479928 158.9938118 387.76663376 159.02692068 396.35851848 C159.07223217 407.96586363 159.13312709 419.5731262 159.19316864 431.18040276 C159.28738641 449.47439385 159.36071897 467.76840818 159.4375 486.0625 C196.3975 486.0625 233.3575 486.0625 271.4375 486.0625 C271.44782581 456.9687143 271.44782581 456.9687143 271.06518555 427.88500977 C270.99832555 424.54125869 270.93941447 421.19742147 270.88085938 417.85351562 C270.83900629 415.67447019 270.7967067 413.49543328 270.75390625 411.31640625 C270.72883751 409.85540245 270.72883751 409.85540245 270.70326233 408.36488342 C270.58232936 402.72298321 270.23317057 397.15045584 269.66152954 391.53582764 C269.30570766 387.60748817 269.24623343 383.69234501 269.25 379.75 C269.25008057 378.93821289 269.25016113 378.12642578 269.25024414 377.29003906 C269.31771658 370.07119797 270.20064352 363.17668177 271.4375 356.0625 C271.77706134 353.73006487 272.11196953 351.39693472 272.4375 349.0625 C270.42662495 349.6956082 268.42956581 350.37248678 266.4375 351.0625 C265.78675507 351.2877536 265.13601013 351.5130072 264.46554565 351.74508667 C259.02768824 353.8110945 253.97328977 356.31181113 250.4375 361.0625 C247.66293466 369.32997695 248.65939311 378.54416849 249 387.125 C249.04065541 389.52788026 249.07393152 391.93089739 249.09960938 394.33398438 C249.15975864 399.58390518 249.29158259 404.82681686 249.48805237 410.07337952 C249.4375 412.0625 249.4375 412.0625 248.4375 413.0625 C246.54051151 413.16165795 244.63981213 413.19049314 242.74023438 413.19189453 C241.52227173 413.19504669 240.30430908 413.19819885 239.04943848 413.20144653 C237.71004195 413.19965675 236.37064576 413.1976058 235.03125 413.1953125 C233.6674396 413.1959856 232.30362932 413.19695567 230.93981934 413.19821167 C228.07819479 413.19968838 225.2166014 413.19753497 222.35498047 413.19287109 C218.67931386 413.18717381 215.00372026 413.19045296 211.32805634 413.19644356 C208.51087896 413.20004991 205.69371902 413.19891025 202.87654114 413.19631577 C201.52089937 413.1956467 200.16525604 413.19647421 198.80961609 413.19879532 C196.91799956 413.20132301 195.02637751 413.19679014 193.13476562 413.19189453 C191.51713318 413.19070114 191.51713318 413.19070114 189.86682129 413.18948364 C187.4375 413.0625 187.4375 413.0625 186.4375 412.0625 C186.33782414 409.79800621 186.30950169 407.53035789 186.30810547 405.26367188 C186.30547699 404.1978463 186.30547699 404.1978463 186.30279541 403.11048889 C186.29837723 400.75071809 186.30131475 398.39102163 186.3046875 396.03125 C186.30401445 394.39839666 186.30304442 392.76554342 186.30178833 391.13269043 C186.3003114 387.70612639 186.30246574 384.27958837 186.30712891 380.85302734 C186.3128262 376.45095499 186.30954716 372.04894359 186.30355644 367.64687347 C186.29995069 364.27381935 186.30108948 360.90077978 186.30368423 357.52772522 C186.30435346 355.90413913 186.30352522 354.28055173 186.30120468 352.65696716 C186.29867791 350.3917183 186.30251906 348.1265695 186.30810547 345.86132812 C186.30890106 344.56972778 186.30969666 343.27812744 186.31051636 341.9473877 C186.4375 339.0625 186.4375 339.0625 187.4375 338.0625 C189.6590775 337.98940061 191.8827329 337.97820713 194.10546875 337.9921875 C195.48764276 337.98359685 196.86980609 337.97311853 198.25195312 337.9609375 C200.43383281 337.94429127 202.61334419 337.93736363 204.79516602 337.96289062 C213.05508368 338.35331052 213.05508368 338.35331052 220.54223633 335.63525391 C222.02182552 333.85508905 223.20840556 332.02073567 224.4375 330.0625 C238.98676503 315.62665601 258.75521736 307.48097161 278.4375 303.0625 C277.58750612 300.66706269 276.74802229 298.48485865 275.23553181 296.42763615 C269.87410955 288.72681168 270.77282634 280.02279786 270.86987305 271.05834961 C270.87140634 269.20497725 270.87073451 267.35160198 270.86804676 265.49823093 C270.86692196 260.55296457 270.8958154 255.60830807 270.93109894 250.66318512 C270.95965921 246.01603865 270.96091912 241.36903748 270.96447754 236.72180176 C270.99067209 223.14778765 271.06047828 209.57388603 271.125 196 C271.228125 165.660625 271.33125 135.32125 271.4375 104.0625 C168.1475 104.0625 64.8575 104.0625 -41.5625 104.0625 Z M332.4375 273.0625 C331.41733845 274.38762088 330.44336623 275.74832734 329.48828125 277.12109375 C328.88693359 277.98283203 328.28558594 278.84457031 327.66601562 279.73242188 C327.03373047 280.64572266 326.40144531 281.55902344 325.75 282.5 C325.13705078 283.37849609 324.52410156 284.25699219 323.89257812 285.16210938 C320.0039874 290.749639 316.19010295 296.38281435 312.4375 302.0625 C304.67561229 300.07608573 297.11096341 297.67129746 289.54541016 295.04443359 C288.7982373 294.78871582 288.05106445 294.53299805 287.28125 294.26953125 C286.61287109 294.0372583 285.94449219 293.80498535 285.25585938 293.56567383 C283.27005867 292.92915199 283.27005867 292.92915199 280.4375 293.0625 C281.69168923 296.5356394 282.94308774 299.3213914 285.4375 302.0625 C288.0267422 303.25950293 288.0267422 303.25950293 291.0234375 304.01953125 C292.11914062 304.32697266 293.21484375 304.63441406 294.34375 304.95117188 C296.06078125 305.4084668 296.06078125 305.4084668 297.8125 305.875 C298.94945312 306.19919922 300.08640625 306.52339844 301.2578125 306.85742188 C308.30269333 308.96178648 308.30269333 308.96178648 315.4375 308.0625 C317.42882796 306.35728238 319.16307014 304.71616005 320.9375 302.8125 C321.39769531 302.33425781 321.85789062 301.85601562 322.33203125 301.36328125 C323.70609488 299.9350292 325.07184404 298.49879334 326.4375 297.0625 C327.34886719 296.32128906 328.26023437 295.58007812 329.19921875 294.81640625 C332.41764988 290.85655643 332.44203539 287.22566913 332.75 282.25 C332.85924805 280.92452148 332.85924805 280.92452148 332.97070312 279.57226562 C333.14651752 277.40388806 333.2947679 275.23330619 333.4375 273.0625 C333.1075 273.0625 332.7775 273.0625 332.4375 273.0625 Z M340.4375 292.0625 C343.372809 292.94601853 345.58323497 293.09319657 348.61328125 292.6875 C349.42998291 292.58856445 350.24668457 292.48962891 351.08813477 292.38769531 C351.96655029 292.28038086 352.84496582 292.17306641 353.75 292.0625 C368.44506653 290.46798659 383.61561813 290.63757931 398.1328125 293.66015625 C400.60829204 294.09231624 402.9295837 294.12943727 405.4375 294.0625 C402.12600016 291.85483344 398.98164258 290.97637916 395.1875 290 C394.54425781 289.82662109 393.90101563 289.65324219 393.23828125 289.47460938 C375.89423887 284.9204896 357.30160165 286.11350709 340.4375 292.0625 Z M327.5 302.6875 C326.34177734 303.91339844 326.34177734 303.91339844 325.16015625 305.1640625 C324.59167969 305.79054688 324.02320313 306.41703125 323.4375 307.0625 C325.22776107 308.9305985 326.71656876 309.97159793 329.3137207 310.29907227 C334.44720646 310.33999261 339.53625049 309.82047284 344.63818359 309.29907227 C366.61819844 307.09819617 387.65823118 309.51009099 409.47802734 312.24633789 C418.79224599 313.4127742 428.06428687 314.48535557 437.4375 315.0625 C424.76395248 299.1850249 405.48981879 296.47336139 386.31640625 293.59375 C383.68238706 293.30509036 381.08585633 293.15152038 378.4375 293.0625 C377.22835937 293.0109375 376.01921875 292.959375 374.7734375 292.90625 C349.13448635 292.14824005 349.13448635 292.14824005 327.5 302.6875 Z M283.4375 307.0625 C280.39130557 307.62268486 277.53544873 308.29186942 274.5625 309.125 C273.69987549 309.36178467 272.83725098 309.59856934 271.94848633 309.8425293 C244.23759782 317.65655897 222.54927133 334.29053486 208.0625 359.125 C203.47025443 367.5173995 199.11204831 376.39397426 198.4375 386.0625 C205.92773064 382.76887914 209.47024183 378.98863558 213.4375 371.9375 C214.4620893 370.22204849 215.49203387 368.50978404 216.52734375 366.80078125 C217.02218262 365.9804541 217.51702148 365.16012695 218.02685547 364.31494141 C221.03790895 359.50705296 224.66473327 355.29138705 228.4375 351.0625 C229.27667969 350.09183594 230.11585938 349.12117188 230.98046875 348.12109375 C246.26208798 330.69586109 264.62808022 318.93088464 285.4375 309.0625 C284.4475 308.0725 284.4475 308.0725 283.4375 307.0625 Z M275.4375 316.0625 C274.78668457 316.4145752 274.13586914 316.76665039 273.46533203 317.12939453 C251.75250266 329.07611952 234.50580537 345.46357871 220 365.4375 C219.57436768 366.02063965 219.14873535 366.6037793 218.71020508 367.20458984 C216.45368046 370.37313221 214.70006952 373.37828074 213.4375 377.0625 C221.71696275 372.456614 229.83054326 367.62943844 237.875 362.625 C251.12629465 354.38684573 251.12629465 354.38684573 256.3125 351.25 C256.90361572 350.89099609 257.49473145 350.53199219 258.10375977 350.16210938 C261.14057261 348.34378891 264.20055792 346.65292925 267.375 345.0859375 C274.69103869 341.46083266 280.20941556 337.86118773 285.47265625 331.44140625 C291.28770628 324.40091825 299.04000433 319.29785999 306.4375 314.0625 C294.19940509 307.80310742 287.07230125 309.70791635 275.4375 316.0625 Z M318.4375 314.0625 C317.7775 315.3825 317.1175 316.7025 316.4375 318.0625 C317.076875 318.949375 317.71625 319.83625 318.375 320.75 C320.24579757 323.75461428 321.03173966 325.6135371 321.4375 329.0625 C323.78283951 329.83206136 323.78283951 329.83206136 326.4375 330.0625 C328.44880237 328.69768768 329.23449847 327.46850305 330.3125 325.3125 C330.51218521 321.71816622 329.06679096 319.20470399 327.4375 316.0625 C324.0022952 313.77236347 322.452169 313.88407027 318.4375 314.0625 Z M333.4375 316.0625 C334.81824225 323.62781691 337.15288294 328.50466764 342.1484375 334.30859375 C362.02473525 358.22120453 376.3692354 388.0294616 391.4375 415.0625 C391.7675 415.0625 392.0975 415.0625 392.4375 415.0625 C391.96687365 408.28262291 390.87907578 402.05319552 388.875 395.5625 C388.61251465 394.70446777 388.3500293 393.84643555 388.07958984 392.96240234 C379.13129104 364.6945031 361.22639306 333.48314459 336.4375 316.0625 C335.4475 316.0625 334.4575 316.0625 333.4375 316.0625 Z M311.4375 322.0625 C306.81542208 325.17532799 304.56271236 327.43643821 303.4375 333.0625 C302.99404072 338.11793583 303.43831569 340.93862157 306.4375 345.0625 C308.80983611 345.02469702 308.80983611 345.02469702 311.4375 344.0625 C315.74890528 338.55348215 316.99637032 333.99249199 316.4375 327.0625 C315.78067691 324.65563185 315.78067691 324.65563185 314.4375 323.0625 C313.4475 322.7325 312.4575 322.4025 311.4375 322.0625 Z M349.4375 324.0625 C349.98929932 324.70409058 349.98929932 324.70409058 350.55224609 325.35864258 C352.18319091 327.25777683 353.81068178 329.15983 355.4375 331.0625 C355.90833008 331.61083496 356.37916016 332.15916992 356.86425781 332.72412109 C370.34166498 348.55403625 379.96904808 365.80181349 387.57470703 385.11157227 C388.48333605 387.31625833 388.48333605 387.31625833 390.4375 390.0625 C389.57235734 366.27107688 373.86602449 345.19288822 357.69921875 329.15625 C354.0938963 325.44590805 354.0938963 325.44590805 349.4375 324.0625 Z M287.12719727 336.58300781 C280.35004223 343.56970928 277.09382433 349.47203466 275.4375 359.0625 C275.26661865 359.98901367 275.0957373 360.91552734 274.91967773 361.87011719 C270.82787831 388.96093708 276.23725994 418.31025674 284.4375 444.0625 C284.7675 444.0625 285.0975 444.0625 285.4375 444.0625 C286.58371064 433.6217694 286.990692 424.871125 283.4206543 414.90966797 C275.6882266 393.19179654 279.50412557 369.00209025 288.71875 348.38671875 C291.03905305 343.89904171 293.83684626 339.83766859 296.734375 335.70703125 C298.81054728 332.48324997 299.75654836 329.80773404 300.4375 326.0625 C295.50341211 326.0625 290.46082495 333.30249139 287.12719727 336.58300781 Z M77.4375 329.0625 C77.4375 352.4925 77.4375 375.9225 77.4375 400.0625 C78.7575 399.0725 80.0775 398.0825 81.4375 397.0625 C84.1875 397.375 84.1875 397.375 86.4375 398.0625 C86.47991723 400.39544775 86.47842937 402.72952567 86.4375 405.0625 C85.4375 406.0625 85.4375 406.0625 83.0625 406.25 C80.4375 406.0625 80.4375 406.0625 77.4375 404.0625 C77.4375 430.4625 77.4375 456.8625 77.4375 484.0625 C101.8575 484.0625 126.2775 484.0625 151.4375 484.0625 C151.4375 432.9125 151.4375 381.7625 151.4375 329.0625 C127.0175 329.0625 102.5975 329.0625 77.4375 329.0625 Z M321.4375 335.0625 C321.20675781 335.72636719 320.97601563 336.39023437 320.73828125 337.07421875 C317.98591822 344.52626885 317.98591822 344.52626885 314.625 347.8125 C313.903125 348.555 313.18125 349.2975 312.4375 350.0625 C312.7675 352.0425 313.0975 354.0225 313.4375 356.0625 C321.8525 355.5675 321.8525 355.5675 330.4375 355.0625 C328.86528914 345.28572222 328.86528914 345.28572222 325.4375 336.0625 C323.39830877 335.30466072 323.39830877 335.30466072 321.4375 335.0625 Z M297.4375 338.0625 C298.4375 340.0625 298.4375 340.0625 298.4375 340.0625 Z M296.4375 340.0625 C283.06821593 359.18565316 278.81460654 382.48558207 282.8125 405.25 C282.93850586 405.96849121 283.06451172 406.68698242 283.19433594 407.42724609 C283.86011422 410.91801627 284.61323241 413.9929715 286.4375 417.0625 C288.40360969 415.09639031 287.98890609 411.40640811 288.234375 408.70703125 C288.3870881 407.13227314 288.54035096 405.55756826 288.6940918 403.98291016 C288.77428558 403.14947083 288.85447937 402.31603149 288.93710327 401.45733643 C290.58577022 384.45466738 292.93789266 367.73709428 295.95068359 350.92285156 C296.56536787 347.31119613 297.03052487 343.70291491 297.4375 340.0625 C297.1075 340.0625 296.7775 340.0625 296.4375 340.0625 Z M191.4375 343.0625 C191.4375 357.9125 191.4375 372.7625 191.4375 388.0625 C194.20481665 382.52786669 194.55978884 378.87928703 194.53515625 372.671875 C194.5337413 371.96726135 194.53232635 371.26264771 194.53086853 370.53668213 C194.52528933 368.29524416 194.51274073 366.05390757 194.5 363.8125 C194.49498231 362.28906395 194.49041987 360.76562632 194.48632812 359.2421875 C194.47532674 355.51559228 194.45807646 351.78905604 194.4375 348.0625 C195.48550781 348.12050781 196.53351563 348.17851562 197.61328125 348.23828125 C198.992143 348.28518131 200.37105287 348.33068122 201.75 348.375 C202.44029297 348.41689453 203.13058594 348.45878906 203.84179688 348.50195312 C206.13043125 348.61091587 206.13043125 348.61091587 209.4375 348.0625 C210.4275 346.4125 211.4175 344.7625 212.4375 343.0625 C205.5075 343.0625 198.5775 343.0625 191.4375 343.0625 Z M301.4375 348.0625 C298.80127048 360.51447771 296.81087425 372.99724137 295.25 385.625 C295.16568726 386.30191895 295.08137451 386.97883789 294.99450684 387.67626953 C294.44271043 392.13493576 293.93546917 396.59755625 293.4375 401.0625 C293.28941895 402.22056152 293.14133789 403.37862305 292.98876953 404.57177734 C292.86743652 405.63992676 292.74610352 406.70807617 292.62109375 407.80859375 C292.50693115 408.74243896 292.39276855 409.67628418 292.27514648 410.63842773 C292.22288894 413.15243085 292.22288894 413.15243085 293.92871094 415.05834961 C295.68481892 416.56020709 297.50929124 417.79383105 299.4375 419.0625 C301.375 421.4375 301.375 421.4375 302.4375 423.0625 C303.4275 421.886875 303.4275 421.886875 304.4375 420.6875 C308.18370894 417.40956718 310.6392455 417.11457629 315.4375 416.0625 C314.99393816 401.24141632 313.70822924 386.71674158 311.4375 372.0625 C311.29441406 371.10698242 311.15132813 370.15146484 311.00390625 369.16699219 C310.57664642 366.39642014 310.10907053 363.6361545 309.625 360.875 C309.49633545 360.04347412 309.3676709 359.21194824 309.23510742 358.35522461 C308.46609959 354.06362473 308.46609959 354.06362473 305.96337891 350.63037109 C304.15500843 349.36396468 304.15500843 349.36396468 301.4375 348.0625 Z M197.4375 350.0625 C197.4375 355.6725 197.4375 361.2825 197.4375 367.0625 C199.93991083 363.72595223 202.0361486 360.47027672 204.125 356.875 C204.74761719 355.80894531 205.37023437 354.74289062 206.01171875 353.64453125 C207.5180654 351.40818799 207.5180654 351.40818799 207.4375 350.0625 C204.1375 350.0625 200.8375 350.0625 197.4375 350.0625 Z M314.4375 360.0625 C314.74737617 362.31286286 315.06049818 364.56277894 315.375 366.8125 C315.54902344 368.06546875 315.72304688 369.3184375 315.90234375 370.609375 C316.40149104 374.17657512 316.40149104 374.17657512 317.4375 378.0625 C326.8425 377.0725 326.8425 377.0725 336.4375 376.0625 C335.29190314 369.71765584 333.86893813 364.03057541 331.4375 358.0625 C325.36857371 357.80962807 320.27549592 358.36417391 314.4375 360.0625 Z M241.4375 366.0625 C241.1075 377.9425 240.7775 389.8225 240.4375 402.0625 C225.2575 402.3925 210.0775 402.7225 194.4375 403.0625 C194.4375 400.4225 194.4375 397.7825 194.4375 395.0625 C193.4475 395.3925 192.4575 395.7225 191.4375 396.0625 C191.4375 400.0225 191.4375 403.9825 191.4375 408.0625 C208.5975 408.0625 225.7575 408.0625 243.4375 408.0625 C243.4375 394.2025 243.4375 380.3425 243.4375 366.0625 C242.7775 366.0625 242.1175 366.0625 241.4375 366.0625 Z M232.3125 371.5 C231.58804687 371.95246094 230.86359375 372.40492188 230.1171875 372.87109375 C229.56289063 373.26425781 229.00859375 373.65742188 228.4375 374.0625 C228.4375 374.3925 228.4375 374.7225 228.4375 375.0625 C231.7375 375.0625 235.0375 375.0625 238.4375 375.0625 C238.4375 373.0825 238.4375 371.1025 238.4375 369.0625 C235.77701455 369.0625 234.54853647 370.08544646 232.3125 371.5 Z M208.9375 385.125 C207.24475952 386.10835327 207.24475952 386.10835327 205.51782227 387.11157227 C201.19065675 389.73514136 201.19065675 389.73514136 197.4375 393.0625 C197.4375 395.3725 197.4375 397.6825 197.4375 400.0625 C210.9675 400.0625 224.4975 400.0625 238.4375 400.0625 C238.4375 392.8025 238.4375 385.5425 238.4375 378.0625 C226.2994525 376.29482318 219.48941434 378.85747952 208.9375 385.125 Z M318.4375 382.0625 C318.7675 387.3425 319.0975 392.6225 319.4375 398.0625 C330.3275 397.5675 330.3275 397.5675 341.4375 397.0625 C340.65042803 390.29175313 340.65042803 390.29175313 338.875 384.0625 C338.60558594 383.299375 338.33617187 382.53625 338.05859375 381.75 C337.85363281 381.193125 337.64867187 380.63625 337.4375 380.0625 C335.5836748 380.00770714 333.7293612 379.96935406 331.875 379.9375 C330.84246094 379.91429687 329.80992187 379.89109375 328.74609375 379.8671875 C324.75739535 379.98224813 324.75739535 379.98224813 318.4375 382.0625 Z M390.4375 390.0625 C391.4375 393.0625 391.4375 393.0625 391.4375 393.0625 Z M81.4375 399.0625 C81.1075 400.3825 80.7775 401.7025 80.4375 403.0625 C81.7575 403.3925 83.0775 403.7225 84.4375 404.0625 C84.4375 402.7425 84.4375 401.4225 84.4375 400.0625 C83.4475 399.7325 82.4575 399.4025 81.4375 399.0625 Z M320.4375 402.0625 C320.41039877 404.6250718 320.39061229 407.18735365 320.375 409.75 C320.36662109 410.47123047 320.35824219 411.19246094 320.34960938 411.93554688 C320.33206368 415.77805382 320.50225779 419.32889526 321.4375 423.0625 C322.38753906 422.90910156 323.33757812 422.75570313 324.31640625 422.59765625 C328.98711567 421.93041205 333.66548139 421.71846436 338.375 421.5 C339.24962891 421.45681641 340.12425781 421.41363281 341.02539062 421.36914062 C343.16261995 421.26403099 345.30004238 421.16286015 347.4375 421.0625 C347.1501705 419.22848192 346.85738417 417.39531856 346.5625 415.5625 C346.40007812 414.5415625 346.23765625 413.520625 346.0703125 412.46875 C345.3537181 408.61152582 344.41996249 404.86025417 343.4375 401.0625 C339.97918414 401.03355453 336.52089928 401.01572 333.0625 401 C332.07765625 400.99162109 331.0928125 400.98324219 330.078125 400.97460938 C329.13710938 400.97138672 328.19609375 400.96816406 327.2265625 400.96484375 C326.35725098 400.95960693 325.48793945 400.95437012 324.59228516 400.94897461 C322.38700006 400.92127649 322.38700006 400.92127649 320.4375 402.0625 Z M292.4375 419.0625 C290.66018428 433.69699323 289.50009337 448.36044448 288.4375 463.0625 C284.63639171 459.53387259 283.15919995 456.20891054 281.6875 451.3125 C281.46707031 450.61511719 281.24664062 449.91773438 281.01953125 449.19921875 C280.48114258 447.49041992 279.95778943 445.77689632 279.4375 444.0625 C279.1075 444.0625 278.7775 444.0625 278.4375 444.0625 C278.4375 458.2525 278.4375 472.4425 278.4375 487.0625 C282.3975 487.3925 286.3575 487.7225 290.4375 488.0625 C293.45618973 491.08118973 292.9038688 494.63150322 293.0625 498.6875 C293.248125 502.833125 293.248125 502.833125 293.4375 507.0625 C299.0475 507.0625 304.6575 507.0625 310.4375 507.0625 C313.88112231 478.34268997 315.83757007 449.97525599 315.4375 421.0625 C310.07592228 421.72250058 307.98378114 422.90828495 304.4375 427.0625 C304.1075 427.7225 303.7775 428.3825 303.4375 429.0625 C300.76742218 428.69891494 299.71230111 428.41473126 298.0234375 426.25 C297.62382812 425.528125 297.22421875 424.80625 296.8125 424.0625 C295.20522106 420.97083391 295.20522106 420.97083391 292.4375 419.0625 Z M321.4375 427.0625 C321.26380897 428.81181678 321.09908247 430.56202324 320.9375 432.3125 C320.8446875 433.28703125 320.751875 434.2615625 320.65625 435.265625 C320.35335385 440.52303666 320.4375 445.79637016 320.4375 451.0625 C330.9975 451.0625 341.5575 451.0625 352.4375 451.0625 C351.74627649 440.64604649 351.74627649 440.64604649 349.875 430.75 C349.60558594 429.66074219 349.33617187 428.57148438 349.05859375 427.44921875 C348.85363281 426.66160156 348.64867187 425.87398438 348.4375 425.0625 C345.06257371 425.00404804 341.68777913 424.96875258 338.3125 424.9375 C337.36117188 424.92074219 336.40984375 424.90398437 335.4296875 424.88671875 C330.35166745 424.85145472 326.19262475 425.02916383 321.4375 427.0625 Z M358.4375 452.0625 C358.5096875 453.01640625 358.581875 453.9703125 358.65625 454.953125 C359.82102777 472.30021641 359.52931593 489.68668883 359.4375 507.0625 C362.33640315 507.25214787 365.22288869 507.39035971 368.125 507.5 C368.94162109 507.55865234 369.75824219 507.61730469 370.59960938 507.67773438 C375.24382756 507.85954513 375.24382756 507.85954513 379.10009766 505.57861328 C382.88514124 500.40158893 384.09654421 495.48207875 383.4375 489.0625 C381.62380768 483.92370508 378.91002963 481.13188308 374.4375 478.0625 C372.4489142 477.66672529 370.44824375 477.32330777 368.4375 477.0625 C368.48390625 476.06089844 368.5303125 475.05929687 368.578125 474.02734375 C369.01921493 463.85862975 369.01921493 463.85862975 364.4375 455.0625 C361.82017834 452.57695822 361.82017834 452.57695822 358.4375 452.0625 Z M320.4375 455.0625 C319.64976083 458.59751458 319.26254198 461.96499788 319.12109375 465.58203125 C319.07919922 466.60361328 319.03730469 467.62519531 318.99414062 468.67773438 C318.95482422 469.73283203 318.91550781 470.78792969 318.875 471.875 C318.83181641 472.94943359 318.78863281 474.02386719 318.74414062 475.13085938 C318.63839017 477.77462082 318.53629767 480.4184711 318.4375 483.0625 C319.27390015 483.05464478 319.27390015 483.05464478 320.12719727 483.04663086 C331.61598483 482.95339879 342.98611754 483.07743484 354.4375 484.0625 C354.46677632 480.54168442 354.48439119 477.02090061 354.5 473.5 C354.51256836 472.0140332 354.51256836 472.0140332 354.52539062 470.49804688 C354.54278365 465.26274622 354.55629924 460.19208895 353.4375 455.0625 C350.70885827 453.69817914 348.52769723 453.93282976 345.4765625 453.9296875 C343.68605469 453.92775391 343.68605469 453.92775391 341.859375 453.92578125 C340.60640625 453.92964844 339.3534375 453.93351562 338.0625 453.9375 C336.81726563 453.93363281 335.57203125 453.92976563 334.2890625 453.92578125 C333.0928125 453.92707031 331.8965625 453.92835938 330.6640625 453.9296875 C329.56658691 453.93081543 328.46911133 453.93194336 327.33837891 453.93310547 C324.85517167 454.04386964 322.80253175 454.34058822 320.4375 455.0625 Z M317.4375 487.0625 C316.7775 493.3325 316.1175 499.6025 315.4375 506.0625 C320.83102589 506.08540785 326.22438421 506.10533526 331.61791992 506.11743164 C333.45418875 506.12247231 335.29045354 506.12930477 337.12670898 506.13793945 C339.76026401 506.15001672 342.39376616 506.15573081 345.02734375 506.16015625 C346.26640724 506.16789818 346.26640724 506.16789818 347.53050232 506.17579651 C349.49986368 506.17599205 351.46911614 506.12454152 353.4375 506.0625 C354.88138571 504.84821012 354.88138571 504.84821012 354.53515625 501.24609375 C354.52848089 499.66403318 354.51651875 498.08198841 354.5 496.5 C354.49548828 495.69369141 354.49097656 494.88738281 354.48632812 494.05664062 C354.47450518 492.05856244 354.45656914 490.06052217 354.4375 488.0625 C348.47305014 485.08027507 340.36307379 485.96109665 333.8125 485.9375 C333.10859131 485.93290771 332.40468262 485.92831543 331.67944336 485.92358398 C330.98858643 485.92559814 330.29772949 485.9276123 329.5859375 485.9296875 C328.67593994 485.93137939 328.67593994 485.93137939 327.74755859 485.93310547 C324.29572519 486.12645483 320.86804698 486.63368163 317.4375 487.0625 Z M-56.5625 494.0625 C-56.5625 497.6925 -56.5625 501.3225 -56.5625 505.0625 C56.2975 505.0625 169.1575 505.0625 285.4375 505.0625 C285.4375 501.4325 285.4375 497.8025 285.4375 494.0625 C172.5775 494.0625 59.7175 494.0625 -56.5625 494.0625 Z " fill="#E0BC84" transform="translate(63.5625,-0.0625)"/>
<path d="M0 0 C1.78700317 -0.01418472 1.78700317 -0.01418472 3.61010742 -0.02865601 C5.54140503 -0.01954697 5.54140503 -0.01954697 7.51171875 -0.01025391 C8.8454606 -0.01227496 10.17920138 -0.01518666 11.51293945 -0.01895142 C14.30723601 -0.02337336 17.10124473 -0.01694831 19.89550781 -0.00292969 C23.4769634 0.01416265 27.05774457 0.0043207 30.63917542 -0.01364708 C33.39299601 -0.02448872 36.14665676 -0.02103695 38.90048218 -0.0132637 C40.8631026 -0.01028969 42.82572923 -0.01939932 44.78833008 -0.02865601 C45.97966553 -0.01919952 47.17100098 -0.00974304 48.3984375 0 C49.44862061 0.00238678 50.49880371 0.00477356 51.58081055 0.00723267 C54.19921875 0.38818359 54.19921875 0.38818359 56.0375061 1.48104858 C57.81502958 4.39913444 57.5809889 6.89578672 57.58740234 10.29052734 C57.5926593 10.98840363 57.59791626 11.68627991 57.60333252 12.40530396 C57.61653721 14.71232479 57.6077933 17.01865573 57.59765625 19.32568359 C57.59967686 20.92846815 57.6025882 22.5312518 57.60635376 24.1340332 C57.61077773 27.4932531 57.60434388 30.8522337 57.59033203 34.21142578 C57.57323991 38.51925199 57.58308073 42.82651749 57.60104942 47.13432312 C57.61188541 50.44401277 57.60844182 53.7535693 57.60066605 57.06326294 C57.59866352 58.65170355 57.60112518 60.24015622 57.60810471 61.82858276 C57.61571638 64.04799455 57.6041202 66.26649594 57.58740234 68.48583984 C57.58501556 69.74920166 57.58262878 71.01256348 57.58016968 72.31420898 C57.19921875 75.38818359 57.19921875 75.38818359 56.0375061 77.2953186 C53.4262978 78.84768643 51.42887346 78.76947983 48.3984375 78.77636719 C47.20710205 78.78582367 46.0157666 78.79528015 44.78833008 78.80502319 C42.85703247 78.79591415 42.85703247 78.79591415 40.88671875 78.78662109 C39.5529769 78.78864215 38.21923612 78.79155385 36.88549805 78.7953186 C34.09120149 78.79974055 31.29719277 78.79331549 28.50292969 78.77929688 C24.9214741 78.76220454 21.34069293 78.77204648 17.75926208 78.79001427 C15.00544149 78.8008559 12.25178074 78.79740414 9.49795532 78.78963089 C7.5353349 78.78665688 5.57270827 78.79576651 3.61010742 78.80502319 C1.82310425 78.79083847 1.82310425 78.79083847 0 78.77636719 C-1.05018311 78.77398041 -2.10036621 78.77159363 -3.18237305 78.76913452 C-5.80078125 78.38818359 -5.80078125 78.38818359 -7.6390686 77.2953186 C-9.41659208 74.37723275 -9.1825514 71.88058047 -9.18896484 68.48583984 C-9.1942218 67.78796356 -9.19947876 67.09008728 -9.20489502 66.37106323 C-9.21809971 64.06404239 -9.2093558 61.75771146 -9.19921875 59.45068359 C-9.20123936 57.84789904 -9.2041507 56.24511539 -9.20791626 54.64233398 C-9.21234023 51.28311409 -9.20590638 47.92413349 -9.19189453 44.56494141 C-9.17480241 40.2571152 -9.18464323 35.9498497 -9.20261192 31.64204407 C-9.21344791 28.33235442 -9.21000432 25.02279789 -9.20222855 21.71310425 C-9.20022602 20.12466363 -9.20268768 18.53621097 -9.20966721 16.94778442 C-9.21727888 14.72837263 -9.2056827 12.50987125 -9.18896484 10.29052734 C-9.18657806 9.02716553 -9.18419128 7.76380371 -9.18173218 6.4621582 C-8.80078125 3.38818359 -8.80078125 3.38818359 -7.6390686 1.48104858 C-5.0278603 -0.07131924 -3.03043596 0.00688735 0 0 Z M-1.80078125 7.38818359 C-1.80078125 28.50818359 -1.80078125 49.62818359 -1.80078125 71.38818359 C15.35921875 71.38818359 32.51921875 71.38818359 50.19921875 71.38818359 C50.19921875 50.26818359 50.19921875 29.14818359 50.19921875 7.38818359 C33.03921875 7.38818359 15.87921875 7.38818359 -1.80078125 7.38818359 Z " fill="#E1BC84" transform="translate(257.80078125,125.61181640625)"/>
<path d="M0 0 C1.78700317 -0.01418472 1.78700317 -0.01418472 3.61010742 -0.02865601 C5.54140503 -0.01954697 5.54140503 -0.01954697 7.51171875 -0.01025391 C8.8454606 -0.01227496 10.17920138 -0.01518666 11.51293945 -0.01895142 C14.30723601 -0.02337336 17.10124473 -0.01694831 19.89550781 -0.00292969 C23.4769634 0.01416265 27.05774457 0.0043207 30.63917542 -0.01364708 C33.39299601 -0.02448872 36.14665676 -0.02103695 38.90048218 -0.0132637 C40.8631026 -0.01028969 42.82572923 -0.01939932 44.78833008 -0.02865601 C45.97966553 -0.01919952 47.17100098 -0.00974304 48.3984375 0 C49.44862061 0.00238678 50.49880371 0.00477356 51.58081055 0.00723267 C54.19921875 0.38818359 54.19921875 0.38818359 56.0375061 1.48104858 C57.81502958 4.39913444 57.5809889 6.89578672 57.58740234 10.29052734 C57.5926593 10.98840363 57.59791626 11.68627991 57.60333252 12.40530396 C57.61653721 14.71232479 57.6077933 17.01865573 57.59765625 19.32568359 C57.59967686 20.92846815 57.6025882 22.5312518 57.60635376 24.1340332 C57.61077773 27.4932531 57.60434388 30.8522337 57.59033203 34.21142578 C57.57323991 38.51925199 57.58308073 42.82651749 57.60104942 47.13432312 C57.61188541 50.44401277 57.60844182 53.7535693 57.60066605 57.06326294 C57.59866352 58.65170355 57.60112518 60.24015622 57.60810471 61.82858276 C57.61571638 64.04799455 57.6041202 66.26649594 57.58740234 68.48583984 C57.58501556 69.74920166 57.58262878 71.01256348 57.58016968 72.31420898 C57.19921875 75.38818359 57.19921875 75.38818359 56.0375061 77.2953186 C53.4262978 78.84768643 51.42887346 78.76947983 48.3984375 78.77636719 C47.20710205 78.78582367 46.0157666 78.79528015 44.78833008 78.80502319 C42.85703247 78.79591415 42.85703247 78.79591415 40.88671875 78.78662109 C39.5529769 78.78864215 38.21923612 78.79155385 36.88549805 78.7953186 C34.09120149 78.79974055 31.29719277 78.79331549 28.50292969 78.77929688 C24.9214741 78.76220454 21.34069293 78.77204648 17.75926208 78.79001427 C15.00544149 78.8008559 12.25178074 78.79740414 9.49795532 78.78963089 C7.5353349 78.78665688 5.57270827 78.79576651 3.61010742 78.80502319 C1.82310425 78.79083847 1.82310425 78.79083847 0 78.77636719 C-1.05018311 78.77398041 -2.10036621 78.77159363 -3.18237305 78.76913452 C-5.80078125 78.38818359 -5.80078125 78.38818359 -7.6390686 77.2953186 C-9.41659208 74.37723275 -9.1825514 71.88058047 -9.18896484 68.48583984 C-9.1942218 67.78796356 -9.19947876 67.09008728 -9.20489502 66.37106323 C-9.21809971 64.06404239 -9.2093558 61.75771146 -9.19921875 59.45068359 C-9.20123936 57.84789904 -9.2041507 56.24511539 -9.20791626 54.64233398 C-9.21234023 51.28311409 -9.20590638 47.92413349 -9.19189453 44.56494141 C-9.17480241 40.2571152 -9.18464323 35.9498497 -9.20261192 31.64204407 C-9.21344791 28.33235442 -9.21000432 25.02279789 -9.20222855 21.71310425 C-9.20022602 20.12466363 -9.20268768 18.53621097 -9.20966721 16.94778442 C-9.21727888 14.72837263 -9.2056827 12.50987125 -9.18896484 10.29052734 C-9.18657806 9.02716553 -9.18419128 7.76380371 -9.18173218 6.4621582 C-8.80078125 3.38818359 -8.80078125 3.38818359 -7.6390686 1.48104858 C-5.0278603 -0.07131924 -3.03043596 0.00688735 0 0 Z M-1.80078125 7.38818359 C-1.80078125 28.50818359 -1.80078125 49.62818359 -1.80078125 71.38818359 C15.35921875 71.38818359 32.51921875 71.38818359 50.19921875 71.38818359 C50.19921875 50.26818359 50.19921875 29.14818359 50.19921875 7.38818359 C33.03921875 7.38818359 15.87921875 7.38818359 -1.80078125 7.38818359 Z " fill="#E0BD85" transform="translate(156.80078125,125.61181640625)"/>
<path d="M0 0 C2.49815369 -0.38095093 2.49815369 -0.38095093 5.68725586 -0.38818359 C6.87866684 -0.39764008 8.07007782 -0.40709656 9.29759216 -0.4168396 C10.59028519 -0.41076691 11.88297821 -0.40469421 13.21484375 -0.3984375 C14.55001484 -0.40045789 15.88518486 -0.40336904 17.22035217 -0.40713501 C20.02062471 -0.4115616 22.82061039 -0.40511801 25.62084961 -0.39111328 C29.21018076 -0.3740372 32.79883819 -0.38384964 36.38814449 -0.40183067 C39.14625621 -0.4126739 41.90420837 -0.40921952 44.66232491 -0.4014473 C46.62937481 -0.39847224 48.59643092 -0.40758458 50.5634613 -0.4168396 C51.75802444 -0.40738312 52.95258759 -0.39792664 54.18334961 -0.38818359 C55.23654892 -0.38579681 56.28974823 -0.38341003 57.37486267 -0.38095093 C60 0 60 0 61.83927917 1.09286499 C63.61538441 4.01111407 63.3817712 6.50815783 63.38818359 9.90234375 C63.39344055 10.60022003 63.39869751 11.29809631 63.40411377 12.01712036 C63.41731846 14.3241412 63.40857455 16.63047213 63.3984375 18.9375 C63.40045811 20.54028455 63.40336945 22.14306821 63.40713501 23.74584961 C63.41155898 27.1050695 63.40512513 30.4640501 63.39111328 33.82324219 C63.37402116 38.13106839 63.38386198 42.4383339 63.40183067 46.74613953 C63.41266666 50.05582918 63.40922307 53.3653857 63.4014473 56.67507935 C63.39944477 58.26351996 63.40190643 59.85197263 63.40888596 61.44039917 C63.41649763 63.65981096 63.40490145 65.87831234 63.38818359 68.09765625 C63.38579681 69.36101807 63.38341003 70.62437988 63.38095093 71.92602539 C63 75 63 75 61.83927917 76.90812683 C59.22146714 78.46216972 57.21995265 78.37412922 54.18334961 78.37231445 C52.98878647 78.37854324 51.79422333 78.38477203 50.5634613 78.39118958 C49.27279251 78.38197983 47.98212372 78.37277008 46.65234375 78.36328125 C45.31620789 78.3627626 43.98007126 78.3632805 42.64393616 78.36479187 C39.84543447 78.36470219 37.04722116 78.35428124 34.2487793 78.33618164 C30.65836737 78.31347234 27.06837596 78.31295468 23.47791195 78.31969929 C20.71985626 78.32303724 17.96189679 78.31641289 15.20385933 78.30657005 C13.23511169 78.30084024 11.26634765 78.30215503 9.29759216 78.30354309 C7.51047569 78.28924507 7.51047569 78.28924507 5.68725586 78.2746582 C4.63485214 78.27005081 3.58244843 78.26544342 2.49815369 78.26069641 C-0 78 -0 78 -2 76 C-2.25396729 73.00831604 -2.25396729 73.00831604 -2.25878906 69.11938477 C-2.2622937 68.41190094 -2.26579834 67.70441711 -2.26940918 66.97549438 C-2.27823034 64.63069928 -2.2723755 62.28620457 -2.265625 59.94140625 C-2.26697169 58.31477297 -2.26891226 56.68814008 -2.27142334 55.06150818 C-2.27437524 51.6492836 -2.27007543 48.23716361 -2.26074219 44.82495117 C-2.24935661 40.44882394 -2.25590095 36.07294226 -2.26788712 31.69682407 C-2.27511167 28.33654427 -2.27281489 24.97632274 -2.26763153 21.61604118 C-2.26629621 20.00248117 -2.26793864 18.38891588 -2.27259064 16.77536201 C-2.27766469 14.52010196 -2.26993312 12.26524014 -2.25878906 10.01000977 C-2.25640228 8.08379539 -2.25640228 8.08379539 -2.25396729 6.1186676 C-2 3 -2 3 0 0 Z M4 7 C4 28.12 4 49.24 4 71 C21.16 71 38.32 71 56 71 C56 49.88 56 28.76 56 7 C38.84 7 21.68 7 4 7 Z " fill="#E0BC84" transform="translate(47,125)"/>
<path d="M0 0 C1.21465942 -0.00630432 2.42931885 -0.01260864 3.68078613 -0.019104 C5.65734192 -0.01303131 5.65734192 -0.01303131 7.67382812 -0.00683594 C9.03381418 -0.0081827 10.39379977 -0.01012333 11.75378418 -0.01263428 C14.6052712 -0.01558503 17.45663299 -0.01128958 20.30810547 -0.00195312 C23.96690589 0.00944152 27.62541292 0.00288177 31.28420258 -0.00909805 C34.09285704 -0.01631805 36.90144172 -0.01402811 39.71009827 -0.00884247 C41.71652415 -0.00685555 43.72295272 -0.01293957 45.72937012 -0.019104 C46.94402954 -0.01279968 48.15868896 -0.00649536 49.41015625 0 C50.48334106 0.00159119 51.55652588 0.00318237 52.66223145 0.00482178 C55.20507812 0.25878906 55.20507812 0.25878906 57.20507812 2.25878906 C57.46577454 5.25047302 57.46577454 5.25047302 57.47973633 9.1394043 C57.48484726 9.84688812 57.48995819 10.55437195 57.495224 11.28329468 C57.50915374 13.62807616 57.5081607 15.97256481 57.50585938 18.31738281 C57.50974456 19.94401662 57.51407886 21.57064942 57.5188446 23.19728088 C57.52631416 26.60949998 57.52601033 30.02161562 57.52075195 33.43383789 C57.5149574 37.81004467 57.53188414 42.18582821 57.55509663 46.56196499 C57.56981762 49.92225121 57.5707079 53.28243513 57.5675869 56.64274788 C57.56810097 58.25631613 57.57335484 59.86988998 57.58339882 61.48342705 C57.59571418 63.73882536 57.58900176 65.99339459 57.57739258 68.2487793 C57.578022 69.53292221 57.57865143 70.81706512 57.57929993 72.14012146 C57.20507812 75.25878906 57.20507812 75.25878906 56.03862 77.1726532 C53.45300147 78.70429699 51.49491876 78.64003987 48.49609375 78.64697266 C47.32477905 78.65642914 46.15346436 78.66588562 44.94665527 78.67562866 C43.68099731 78.66955597 42.41533936 78.66348328 41.11132812 78.65722656 C39.81312134 78.66009674 38.51491455 78.66296692 37.17736816 78.66592407 C34.43014822 78.67034581 31.68322105 78.66392165 28.93603516 78.64990234 C25.41510972 78.63280998 21.8948703 78.64265204 18.37397003 78.66061974 C15.01553441 78.67406864 11.65728324 78.6646517 8.29882812 78.65722656 C7.03317017 78.66329926 5.76751221 78.66937195 4.46350098 78.67562866 C3.29218628 78.66617218 2.12087158 78.6567157 0.9140625 78.64697266 C-0.63456482 78.64339249 -0.63456482 78.64339249 -2.21447754 78.63973999 C-4.79492188 78.25878906 -4.79492188 78.25878906 -6.62846375 77.1726532 C-8.42578819 74.22369625 -8.16891721 71.67807934 -8.16723633 68.2487793 C-8.17088699 67.53954315 -8.17453766 66.83030701 -8.17829895 66.09957886 C-8.1864051 63.75526995 -8.17279578 61.41165205 -8.15820312 59.06738281 C-8.15768458 57.43978374 -8.15820206 55.81218403 -8.15971375 54.18458557 C-8.15962402 50.77408495 -8.14919369 47.36382073 -8.13110352 43.95336914 C-8.10839823 39.57603521 -8.10787544 35.19904621 -8.11462116 30.82166958 C-8.11795797 27.46141988 -8.11133682 24.10124921 -8.10149193 20.74101448 C-8.097636 19.12663244 -8.09649333 17.51224162 -8.09807777 15.89785576 C-8.0984475 13.64486724 -8.0858554 11.39232583 -8.06958008 9.1394043 C-8.06497269 7.85605698 -8.0603653 6.57270966 -8.05561829 5.25047302 C-7.57358852 -0.28117477 -4.84441833 0.00718271 0 0 Z M-1.79492188 7.25878906 C-1.79492188 28.37878906 -1.79492188 49.49878906 -1.79492188 71.25878906 C15.69507813 71.25878906 33.18507813 71.25878906 51.20507812 71.25878906 C51.20507812 50.13878906 51.20507812 29.01878906 51.20507812 7.25878906 C33.71507812 7.25878906 16.22507812 7.25878906 -1.79492188 7.25878906 Z " fill="#E1BD84" transform="translate(52.794921875,341.7412109375)"/>
<path d="M0 0 C1.21465942 -0.00630432 2.42931885 -0.01260864 3.68078613 -0.019104 C5.65734192 -0.01303131 5.65734192 -0.01303131 7.67382812 -0.00683594 C9.03381418 -0.0081827 10.39379977 -0.01012333 11.75378418 -0.01263428 C14.6052712 -0.01558503 17.45663299 -0.01128958 20.30810547 -0.00195312 C23.96690589 0.00944152 27.62541292 0.00288177 31.28420258 -0.00909805 C34.09285704 -0.01631805 36.90144172 -0.01402811 39.71009827 -0.00884247 C41.71652415 -0.00685555 43.72295272 -0.01293957 45.72937012 -0.019104 C46.94402954 -0.01279968 48.15868896 -0.00649536 49.41015625 0 C50.48334106 0.00159119 51.55652588 0.00318237 52.66223145 0.00482178 C55.20507812 0.25878906 55.20507812 0.25878906 57.20507812 2.25878906 C57.46577454 5.25047302 57.46577454 5.25047302 57.47973633 9.1394043 C57.48484726 9.84688812 57.48995819 10.55437195 57.495224 11.28329468 C57.50915374 13.62807616 57.5081607 15.97256481 57.50585938 18.31738281 C57.50974456 19.94401662 57.51407886 21.57064942 57.5188446 23.19728088 C57.52631416 26.60949998 57.52601033 30.02161562 57.52075195 33.43383789 C57.5149574 37.81004467 57.53188414 42.18582821 57.55509663 46.56196499 C57.56981762 49.92225121 57.5707079 53.28243513 57.5675869 56.64274788 C57.56810097 58.25631613 57.57335484 59.86988998 57.58339882 61.48342705 C57.59571418 63.73882536 57.58900176 65.99339459 57.57739258 68.2487793 C57.578022 69.53292221 57.57865143 70.81706512 57.57929993 72.14012146 C57.20507812 75.25878906 57.20507812 75.25878906 56.03862 77.1726532 C53.45300147 78.70429699 51.49491876 78.64003987 48.49609375 78.64697266 C47.32477905 78.65642914 46.15346436 78.66588562 44.94665527 78.67562866 C43.68099731 78.66955597 42.41533936 78.66348328 41.11132812 78.65722656 C39.81312134 78.66009674 38.51491455 78.66296692 37.17736816 78.66592407 C34.43014822 78.67034581 31.68322105 78.66392165 28.93603516 78.64990234 C25.41510972 78.63280998 21.8948703 78.64265204 18.37397003 78.66061974 C15.01553441 78.67406864 11.65728324 78.6646517 8.29882812 78.65722656 C7.03317017 78.66329926 5.76751221 78.66937195 4.46350098 78.67562866 C3.29218628 78.66617218 2.12087158 78.6567157 0.9140625 78.64697266 C-0.63456482 78.64339249 -0.63456482 78.64339249 -2.21447754 78.63973999 C-4.79492188 78.25878906 -4.79492188 78.25878906 -6.62846375 77.1726532 C-8.42578819 74.22369625 -8.16891721 71.67807934 -8.16723633 68.2487793 C-8.17088699 67.53954315 -8.17453766 66.83030701 -8.17829895 66.09957886 C-8.1864051 63.75526995 -8.17279578 61.41165205 -8.15820312 59.06738281 C-8.15768458 57.43978374 -8.15820206 55.81218403 -8.15971375 54.18458557 C-8.15962402 50.77408495 -8.14919369 47.36382073 -8.13110352 43.95336914 C-8.10839823 39.57603521 -8.10787544 35.19904621 -8.11462116 30.82166958 C-8.11795797 27.46141988 -8.11133682 24.10124921 -8.10149193 20.74101448 C-8.097636 19.12663244 -8.09649333 17.51224162 -8.09807777 15.89785576 C-8.0984475 13.64486724 -8.0858554 11.39232583 -8.06958008 9.1394043 C-8.06497269 7.85605698 -8.0603653 6.57270966 -8.05561829 5.25047302 C-7.57358852 -0.28117477 -4.84441833 0.00718271 0 0 Z M-1.79492188 7.25878906 C-1.79492188 28.37878906 -1.79492188 49.49878906 -1.79492188 71.25878906 C15.69507813 71.25878906 33.18507813 71.25878906 51.20507812 71.25878906 C51.20507812 50.13878906 51.20507812 29.01878906 51.20507812 7.25878906 C33.71507812 7.25878906 16.22507812 7.25878906 -1.79492188 7.25878906 Z " fill="#E1BD84" transform="translate(52.794921875,225.7412109375)"/>
<path d="M0 0 C1.21465942 -0.00630432 2.42931885 -0.01260864 3.68078613 -0.019104 C5.65734192 -0.01303131 5.65734192 -0.01303131 7.67382812 -0.00683594 C9.03381418 -0.0081827 10.39379977 -0.01012333 11.75378418 -0.01263428 C14.6052712 -0.01558503 17.45663299 -0.01128958 20.30810547 -0.00195312 C23.96690589 0.00944152 27.62541292 0.00288177 31.28420258 -0.00909805 C34.09285704 -0.01631805 36.90144172 -0.01402811 39.71009827 -0.00884247 C41.71652415 -0.00685555 43.72295272 -0.01293957 45.72937012 -0.019104 C46.94402954 -0.01279968 48.15868896 -0.00649536 49.41015625 0 C50.48334106 0.00159119 51.55652588 0.00318237 52.66223145 0.00482178 C55.20507812 0.25878906 55.20507812 0.25878906 57.20507812 2.25878906 C57.45904541 5.25720215 57.45904541 5.25720215 57.46386719 9.15527344 C57.46737183 9.86436356 57.47087646 10.57345367 57.4744873 11.30403137 C57.48330733 13.65363281 57.47745465 16.00293443 57.47070312 18.35253906 C57.4720497 19.98156797 57.47399017 21.61059649 57.47650146 23.23962402 C57.47945309 26.65604473 57.47515389 30.07236095 57.46582031 33.48876953 C57.45442571 37.87396307 57.46098498 42.25891182 57.47296524 46.64409637 C57.48018283 50.00862481 57.47789639 53.37309495 57.47270966 56.73762512 C57.47137288 58.35480274 57.47302186 59.97198561 57.47766876 61.5891571 C57.4827324 63.84701616 57.47502638 66.1044755 57.46386719 68.36230469 C57.462276 69.64866821 57.46068481 70.93503174 57.45904541 72.26037598 C57.20507812 75.25878906 57.20507812 75.25878906 55.20507812 77.25878906 C52.66223145 77.51275635 52.66223145 77.51275635 49.41015625 77.51757812 C48.19549683 77.52388245 46.9808374 77.53018677 45.72937012 77.53668213 C44.41166626 77.53263367 43.0939624 77.52858521 41.73632812 77.52441406 C40.37634207 77.52576083 39.01635648 77.52770145 37.65637207 77.5302124 C34.80488505 77.53316315 31.95352326 77.52886771 29.10205078 77.51953125 C25.44325036 77.5081366 21.78474333 77.51469636 18.12595367 77.52667618 C15.31729921 77.53389618 12.50871453 77.53160624 9.70005798 77.52642059 C7.6936321 77.52443367 5.68720353 77.53051769 3.68078613 77.53668213 C2.46612671 77.53037781 1.25146729 77.52407349 0 77.51757812 C-1.07318481 77.51598694 -2.14636963 77.51439575 -3.2520752 77.51275635 C-5.79492188 77.25878906 -5.79492188 77.25878906 -7.79492188 75.25878906 C-8.04888916 72.26037598 -8.04888916 72.26037598 -8.05371094 68.36230469 C-8.05721558 67.65321457 -8.06072021 66.94412445 -8.06433105 66.21354675 C-8.07315108 63.86394531 -8.0672984 61.51464369 -8.06054688 59.16503906 C-8.06189345 57.53601015 -8.06383392 55.90698163 -8.06634521 54.2779541 C-8.06929684 50.8615334 -8.06499764 47.44521717 -8.05566406 44.02880859 C-8.04426946 39.64361505 -8.05082873 35.25866631 -8.06280899 30.87348175 C-8.07002658 27.50895331 -8.06774014 24.14448317 -8.06255341 20.779953 C-8.06121663 19.16277538 -8.06286561 17.54559252 -8.06751251 15.92842102 C-8.07257615 13.67056197 -8.06487013 11.41310262 -8.05371094 9.15527344 C-8.05211975 7.86890991 -8.05052856 6.58254639 -8.04888916 5.25720215 C-7.57976544 -0.28141165 -4.84756033 0.00718737 0 0 Z M-1.79492188 6.25878906 C-1.79492188 27.70878906 -1.79492188 49.15878906 -1.79492188 71.25878906 C15.36507813 71.25878906 32.52507812 71.25878906 50.20507812 71.25878906 C50.20507812 49.80878906 50.20507812 28.35878906 50.20507812 6.25878906 C33.04507813 6.25878906 15.88507813 6.25878906 -1.79492188 6.25878906 Z " fill="#E0BC84" transform="translate(257.794921875,226.7412109375)"/>
<path d="M0 0 C1.21465942 -0.00630432 2.42931885 -0.01260864 3.68078613 -0.019104 C5.65734192 -0.01303131 5.65734192 -0.01303131 7.67382812 -0.00683594 C9.03381418 -0.0081827 10.39379977 -0.01012333 11.75378418 -0.01263428 C14.6052712 -0.01558503 17.45663299 -0.01128958 20.30810547 -0.00195312 C23.96690589 0.00944152 27.62541292 0.00288177 31.28420258 -0.00909805 C34.09285704 -0.01631805 36.90144172 -0.01402811 39.71009827 -0.00884247 C41.71652415 -0.00685555 43.72295272 -0.01293957 45.72937012 -0.019104 C46.94402954 -0.01279968 48.15868896 -0.00649536 49.41015625 0 C50.48334106 0.00159119 51.55652588 0.00318237 52.66223145 0.00482178 C55.20507812 0.25878906 55.20507812 0.25878906 57.20507812 2.25878906 C57.45904541 5.25720215 57.45904541 5.25720215 57.46386719 9.15527344 C57.46737183 9.86436356 57.47087646 10.57345367 57.4744873 11.30403137 C57.48330733 13.65363281 57.47745465 16.00293443 57.47070312 18.35253906 C57.4720497 19.98156797 57.47399017 21.61059649 57.47650146 23.23962402 C57.47945309 26.65604473 57.47515389 30.07236095 57.46582031 33.48876953 C57.45442571 37.87396307 57.46098498 42.25891182 57.47296524 46.64409637 C57.48018283 50.00862481 57.47789639 53.37309495 57.47270966 56.73762512 C57.47137288 58.35480274 57.47302186 59.97198561 57.47766876 61.5891571 C57.4827324 63.84701616 57.47502638 66.1044755 57.46386719 68.36230469 C57.462276 69.64866821 57.46068481 70.93503174 57.45904541 72.26037598 C57.20507812 75.25878906 57.20507812 75.25878906 55.20507812 77.25878906 C52.66223145 77.51275635 52.66223145 77.51275635 49.41015625 77.51757812 C48.19549683 77.52388245 46.9808374 77.53018677 45.72937012 77.53668213 C44.41166626 77.53263367 43.0939624 77.52858521 41.73632812 77.52441406 C40.37634207 77.52576083 39.01635648 77.52770145 37.65637207 77.5302124 C34.80488505 77.53316315 31.95352326 77.52886771 29.10205078 77.51953125 C25.44325036 77.5081366 21.78474333 77.51469636 18.12595367 77.52667618 C15.31729921 77.53389618 12.50871453 77.53160624 9.70005798 77.52642059 C7.6936321 77.52443367 5.68720353 77.53051769 3.68078613 77.53668213 C2.46612671 77.53037781 1.25146729 77.52407349 0 77.51757812 C-1.07318481 77.51598694 -2.14636963 77.51439575 -3.2520752 77.51275635 C-5.79492188 77.25878906 -5.79492188 77.25878906 -7.79492188 75.25878906 C-8.04888916 72.26037598 -8.04888916 72.26037598 -8.05371094 68.36230469 C-8.05721558 67.65321457 -8.06072021 66.94412445 -8.06433105 66.21354675 C-8.07315108 63.86394531 -8.0672984 61.51464369 -8.06054688 59.16503906 C-8.06189345 57.53601015 -8.06383392 55.90698163 -8.06634521 54.2779541 C-8.06929684 50.8615334 -8.06499764 47.44521717 -8.05566406 44.02880859 C-8.04426946 39.64361505 -8.05082873 35.25866631 -8.06280899 30.87348175 C-8.07002658 27.50895331 -8.06774014 24.14448317 -8.06255341 20.779953 C-8.06121663 19.16277538 -8.06286561 17.54559252 -8.06751251 15.92842102 C-8.07257615 13.67056197 -8.06487013 11.41310262 -8.05371094 9.15527344 C-8.05211975 7.86890991 -8.05052856 6.58254639 -8.04888916 5.25720215 C-7.57976544 -0.28141165 -4.84756033 0.00718737 0 0 Z M-1.79492188 6.25878906 C-1.79492188 27.70878906 -1.79492188 49.15878906 -1.79492188 71.25878906 C15.36507812 71.25878906 32.52507812 71.25878906 50.20507812 71.25878906 C50.20507812 49.80878906 50.20507812 28.35878906 50.20507812 6.25878906 C33.04507813 6.25878906 15.88507813 6.25878906 -1.79492188 6.25878906 Z " fill="#E0BD85" transform="translate(156.794921875,226.7412109375)"/>
<path d="M0 0 C1.39120471 0.00015906 2.78241534 0.00585033 4.17358398 0.01586914 C4.90463852 0.01728409 5.63569305 0.01869904 6.38890076 0.02015686 C8.73253406 0.02577131 11.07607313 0.03832617 13.41967773 0.05102539 C15.00496282 0.05603853 16.59024939 0.06060176 18.17553711 0.06469727 C22.06945383 0.07574542 25.96329979 0.09301967 29.85717773 0.11352539 C29.52717773 1.10352539 29.19717773 2.09352539 28.85717773 3.11352539 C18.95717773 3.11352539 9.05717773 3.11352539 -1.14282227 3.11352539 C-1.14282227 11.03352539 -1.14282227 18.95352539 -1.14282227 27.11352539 C12.38717773 27.11352539 25.91717773 27.11352539 39.85717773 27.11352539 C39.85717773 20.51352539 39.85717773 13.91352539 39.85717773 7.11352539 C40.84717773 7.11352539 41.83717773 7.11352539 42.85717773 7.11352539 C42.88244664 13.93114433 42.90001018 20.74875129 42.91210938 27.56640625 C42.91715107 29.8876999 42.92398425 32.20899036 42.93261719 34.53027344 C42.94468998 37.85881334 42.95040752 41.18731141 42.95483398 44.51586914 C42.95999527 45.56064926 42.96515656 46.60542938 42.97047424 47.68186951 C42.97054977 48.64279007 42.97062531 49.60371063 42.97070312 50.59375 C42.97292374 51.44424423 42.97514435 52.29473846 42.97743225 53.17100525 C42.85717773 55.11352539 42.85717773 55.11352539 41.85717773 56.11352539 C40.45042554 56.2115739 39.03882638 56.24150725 37.62866211 56.24291992 C36.28221619 56.24764816 36.28221619 56.24764816 34.90856934 56.25247192 C33.44453674 56.24943558 33.44453674 56.24943558 31.95092773 56.24633789 C30.45837463 56.24777298 30.45837463 56.24777298 28.93566895 56.24923706 C26.82731056 56.24991899 24.71895008 56.24806383 22.6105957 56.24389648 C19.37112746 56.23854842 16.13179788 56.24384106 12.89233398 56.25024414 C10.84936493 56.24958336 8.80639595 56.2483022 6.76342773 56.24633789 C5.78740601 56.24836212 4.81138428 56.25038635 3.80578613 56.25247192 C2.90815552 56.24931976 2.0105249 56.2461676 1.08569336 56.24291992 C0.29151001 56.24212433 -0.50267334 56.24132874 -1.32092285 56.24050903 C-3.14282227 56.11352539 -3.14282227 56.11352539 -4.14282227 55.11352539 C-4.24157396 53.43097304 -4.27081131 51.74428511 -4.2722168 50.05883789 C-4.27536896 48.98102051 -4.27852112 47.90320313 -4.2817688 46.79272461 C-4.27974457 45.61983887 -4.27772034 44.44695312 -4.27563477 43.23852539 C-4.27659149 42.04372559 -4.27754822 40.84892578 -4.27853394 39.61791992 C-4.27921598 37.08585559 -4.27736004 34.55378952 -4.27319336 32.02172852 C-4.26784547 28.13041279 -4.27313759 24.2392125 -4.27954102 20.34790039 C-4.27888024 17.89477513 -4.27759908 15.44164995 -4.27563477 12.98852539 C-4.277659 11.81563965 -4.27968323 10.64275391 -4.2817688 9.43432617 C-4.27861664 8.35650879 -4.27546448 7.27869141 -4.2722168 6.16821289 C-4.2714212 5.21414551 -4.27062561 4.26007813 -4.26980591 3.27709961 C-4.06607418 -0.19412477 -3.56486034 0.1287703 0 0 Z M-1.14282227 30.11352539 C-1.14282227 37.70352539 -1.14282227 45.29352539 -1.14282227 53.11352539 C12.38717773 53.11352539 25.91717773 53.11352539 39.85717773 53.11352539 C39.85717773 45.52352539 39.85717773 37.93352539 39.85717773 30.11352539 C26.32717773 30.11352539 12.79717773 30.11352539 -1.14282227 30.11352539 Z " fill="#E1BD84" transform="translate(58.142822265625,352.886474609375)"/>
<path d="M0 0 C1.39120471 0.00015906 2.78241534 0.00585033 4.17358398 0.01586914 C4.90463852 0.01728409 5.63569305 0.01869904 6.38890076 0.02015686 C8.73253406 0.02577131 11.07607313 0.03832617 13.41967773 0.05102539 C15.00496282 0.05603853 16.59024939 0.06060176 18.17553711 0.06469727 C22.06945383 0.07574542 25.96329979 0.09301967 29.85717773 0.11352539 C29.52717773 1.10352539 29.19717773 2.09352539 28.85717773 3.11352539 C18.95717773 3.11352539 9.05717773 3.11352539 -1.14282227 3.11352539 C-1.14282227 11.03352539 -1.14282227 18.95352539 -1.14282227 27.11352539 C12.38717773 27.11352539 25.91717773 27.11352539 39.85717773 27.11352539 C39.85717773 20.51352539 39.85717773 13.91352539 39.85717773 7.11352539 C40.84717773 7.11352539 41.83717773 7.11352539 42.85717773 7.11352539 C42.88244664 13.93114433 42.90001018 20.74875129 42.91210938 27.56640625 C42.91715107 29.8876999 42.92398425 32.20899036 42.93261719 34.53027344 C42.94468998 37.85881334 42.95040752 41.18731141 42.95483398 44.51586914 C42.95999527 45.56064926 42.96515656 46.60542938 42.97047424 47.68186951 C42.97054977 48.64279007 42.97062531 49.60371063 42.97070312 50.59375 C42.97292374 51.44424423 42.97514435 52.29473846 42.97743225 53.17100525 C42.85717773 55.11352539 42.85717773 55.11352539 41.85717773 56.11352539 C40.45042554 56.2115739 39.03882638 56.24150725 37.62866211 56.24291992 C36.28221619 56.24764816 36.28221619 56.24764816 34.90856934 56.25247192 C33.44453674 56.24943558 33.44453674 56.24943558 31.95092773 56.24633789 C30.45837463 56.24777298 30.45837463 56.24777298 28.93566895 56.24923706 C26.82731056 56.24991899 24.71895008 56.24806383 22.6105957 56.24389648 C19.37112746 56.23854842 16.13179788 56.24384106 12.89233398 56.25024414 C10.84936493 56.24958336 8.80639595 56.2483022 6.76342773 56.24633789 C5.78740601 56.24836212 4.81138428 56.25038635 3.80578613 56.25247192 C2.90815552 56.24931976 2.0105249 56.2461676 1.08569336 56.24291992 C0.29151001 56.24212433 -0.50267334 56.24132874 -1.32092285 56.24050903 C-3.14282227 56.11352539 -3.14282227 56.11352539 -4.14282227 55.11352539 C-4.24157396 53.43097304 -4.27081131 51.74428511 -4.2722168 50.05883789 C-4.27536896 48.98102051 -4.27852112 47.90320313 -4.2817688 46.79272461 C-4.27974457 45.61983887 -4.27772034 44.44695312 -4.27563477 43.23852539 C-4.27659149 42.04372559 -4.27754822 40.84892578 -4.27853394 39.61791992 C-4.27921598 37.08585559 -4.27736004 34.55378952 -4.27319336 32.02172852 C-4.26784547 28.13041279 -4.27313759 24.2392125 -4.27954102 20.34790039 C-4.27888024 17.89477513 -4.27759908 15.44164995 -4.27563477 12.98852539 C-4.277659 11.81563965 -4.27968323 10.64275391 -4.2817688 9.43432617 C-4.27861664 8.35650879 -4.27546448 7.27869141 -4.2722168 6.16821289 C-4.2714212 5.21414551 -4.27062561 4.26007813 -4.26980591 3.27709961 C-4.06607418 -0.19412477 -3.56486034 0.1287703 0 0 Z M-1.14282227 30.11352539 C-1.14282227 37.70352539 -1.14282227 45.29352539 -1.14282227 53.11352539 C12.38717773 53.11352539 25.91717773 53.11352539 39.85717773 53.11352539 C39.85717773 45.52352539 39.85717773 37.93352539 39.85717773 30.11352539 C26.32717773 30.11352539 12.79717773 30.11352539 -1.14282227 30.11352539 Z " fill="#E0BD84" transform="translate(58.142822265625,236.886474609375)"/>
<path d="M0 0 C1.34888732 0.00015905 2.69778075 0.00584927 4.04663086 0.01586914 C5.10991859 0.01799156 5.10991859 0.01799156 6.19468689 0.02015686 C8.46699173 0.02577096 10.73919936 0.03832576 13.01147461 0.05102539 C14.54858257 0.05603858 16.08569206 0.0606018 17.62280273 0.06469727 C21.39823103 0.07574497 25.17358632 0.09301898 28.94897461 0.11352539 C28.94897461 1.10352539 28.94897461 2.09352539 28.94897461 3.11352539 C19.04897461 3.11352539 9.14897461 3.11352539 -1.05102539 3.11352539 C-1.05102539 11.36352539 -1.05102539 19.61352539 -1.05102539 28.11352539 C12.47897461 28.11352539 26.00897461 28.11352539 39.94897461 28.11352539 C39.94897461 21.18352539 39.94897461 14.25352539 39.94897461 7.11352539 C40.93897461 7.11352539 41.92897461 7.11352539 42.94897461 7.11352539 C42.97424351 13.93114433 42.99180705 20.74875129 43.00390625 27.56640625 C43.00894794 29.8876999 43.01578112 32.20899036 43.02441406 34.53027344 C43.03648685 37.85881334 43.0422044 41.18731141 43.04663086 44.51586914 C43.05179214 45.56064926 43.05695343 46.60542938 43.06227112 47.68186951 C43.06234665 48.64279007 43.06242218 49.60371063 43.0625 50.59375 C43.06472061 51.44424423 43.06694122 52.29473846 43.06922913 53.17100525 C42.94897461 55.11352539 42.94897461 55.11352539 41.94897461 56.11352539 C40.50607674 56.20648355 39.05867676 56.23099052 37.61279297 56.22705078 C36.23147438 56.22693748 36.23147438 56.22693748 34.82225037 56.2268219 C33.8212178 56.22166061 32.82018524 56.21649933 31.78881836 56.21118164 C30.76921524 56.20976669 29.74961212 56.20835175 28.69911194 56.20689392 C25.42820354 56.20127636 22.15736248 56.18872089 18.88647461 56.17602539 C16.67488705 56.17101265 14.46329843 56.16644936 12.25170898 56.16235352 C6.81744104 56.15130123 1.38321263 56.13454602 -4.05102539 56.11352539 C-4.07629102 48.29899787 -4.09385644 40.48448081 -4.10595703 32.66992188 C-4.11099922 30.00911058 -4.11783275 27.34830207 -4.12646484 24.6875 C-4.13853548 20.87247023 -4.14425468 17.05747695 -4.14868164 13.24243164 C-4.15384293 12.04453506 -4.15900421 10.84663849 -4.1643219 9.61244202 C-4.16439743 8.51137619 -4.16447296 7.41031036 -4.16455078 6.27587891 C-4.16677139 5.30103043 -4.168992 4.32618195 -4.17127991 3.3217926 C-3.98281207 -0.1390949 -3.53968255 0.1317078 0 0 Z M-1.05102539 30.11352539 C-1.05102539 37.70352539 -1.05102539 45.29352539 -1.05102539 53.11352539 C12.47897461 53.11352539 26.00897461 53.11352539 39.94897461 53.11352539 C39.94897461 45.52352539 39.94897461 37.93352539 39.94897461 30.11352539 C26.41897461 30.11352539 12.88897461 30.11352539 -1.05102539 30.11352539 Z " fill="#E0BC84" transform="translate(58.051025390625,135.886474609375)"/>
<path d="M0 0 C11.22 0 22.44 0 34 0 C33.67 0.99 33.34 1.98 33 3 C23.1 3 13.2 3 3 3 C3 10.92 3 18.84 3 27 C16.53 27 30.06 27 44 27 C44 20.07 44 13.14 44 6 C44.99 6.33 45.98 6.66 47 7 C47.02526945 13.6752034 47.04283268 20.35039457 47.05493164 27.02563477 C47.05997325 29.29842591 47.06680637 31.5712138 47.07543945 33.84399414 C47.08751261 37.10303551 47.09322987 40.36203417 47.09765625 43.62109375 C47.10281754 44.64400009 47.10797882 45.66690643 47.11329651 46.72080994 C47.11337204 47.66170975 47.11344757 48.60260956 47.11352539 49.57202148 C47.115746 50.40475082 47.11796661 51.23748016 47.12025452 52.09544373 C47 54 47 54 46 55 C44.55710213 55.09295815 43.10970215 55.11746513 41.66381836 55.11352539 C40.73001343 55.11340454 39.7962085 55.11328369 38.83410645 55.11315918 C37.84599976 55.10804321 36.85789307 55.10292725 35.83984375 55.09765625 C34.93657349 55.09664917 34.03330322 55.09564209 33.10266113 55.09460449 C29.71426126 55.08935512 26.32587941 55.07539398 22.9375 55.0625 C15.368125 55.041875 7.79875 55.02125 0 55 C0 36.85 0 18.7 0 0 Z M3 30 C3 37.59 3 45.18 3 53 C16.53 53 30.06 53 44 53 C44 45.41 44 37.82 44 30 C30.47 30 16.94 30 3 30 Z " fill="#E1BD85" transform="translate(158,238)"/>
<path d="M0 0 C10.89 0 21.78 0 33 0 C33 0.99 33 1.98 33 3 C23.1 3 13.2 3 3 3 C3 10.92 3 18.84 3 27 C16.53 27 30.06 27 44 27 C44 20.07 44 13.14 44 6 C44.99 6.33 45.98 6.66 47 7 C47.02526945 13.6752034 47.04283268 20.35039457 47.05493164 27.02563477 C47.05997325 29.29842591 47.06680637 31.5712138 47.07543945 33.84399414 C47.08751261 37.10303551 47.09322987 40.36203417 47.09765625 43.62109375 C47.10281754 44.64400009 47.10797882 45.66690643 47.11329651 46.72080994 C47.11337204 47.66170975 47.11344757 48.60260956 47.11352539 49.57202148 C47.115746 50.40475082 47.11796661 51.23748016 47.12025452 52.09544373 C47 54 47 54 46 55 C44.55710213 55.09295815 43.10970215 55.11746513 41.66381836 55.11352539 C40.73001343 55.11340454 39.7962085 55.11328369 38.83410645 55.11315918 C37.84599976 55.10804321 36.85789307 55.10292725 35.83984375 55.09765625 C34.93657349 55.09664917 34.03330322 55.09564209 33.10266113 55.09460449 C29.71426126 55.08935512 26.32587941 55.07539398 22.9375 55.0625 C15.368125 55.041875 7.79875 55.02125 0 55 C0 36.85 0 18.7 0 0 Z M3 30 C3 37.59 3 45.18 3 53 C16.53 53 30.06 53 44 53 C44 45.41 44 37.82 44 30 C30.47 30 16.94 30 3 30 Z " fill="#E2BD84" transform="translate(259,238)"/>
<path d="M0 0 C10.89 0 21.78 0 33 0 C33 0.99 33 1.98 33 3 C22.77 3 12.54 3 2 3 C2 10.92 2 18.84 2 27 C15.86 27 29.72 27 44 27 C44 20.4 44 13.8 44 7 C44.66 7 45.32 7 46 7 C46 23.17 46 39.34 46 56 C30.82 56 15.64 56 0 56 C0 37.52 0 19.04 0 0 Z M2 30 C2 37.59 2 45.18 2 53 C15.86 53 29.72 53 44 53 C44 45.41 44 37.82 44 30 C30.14 30 16.28 30 2 30 Z " fill="#E0BC84" transform="translate(259,137)"/>
<path d="M0 0 C10.89 0 21.78 0 33 0 C33 0.99 33 1.98 33 3 C22.77 3 12.54 3 2 3 C2 10.92 2 18.84 2 27 C15.86 27 29.72 27 44 27 C44 20.4 44 13.8 44 7 C44.66 7 45.32 7 46 7 C46 23.17 46 39.34 46 56 C34.8934375 56.0309375 34.8934375 56.0309375 23.5625 56.0625 C21.2222876 56.071604 18.8820752 56.08070801 16.47094727 56.09008789 C14.62776751 56.09300694 12.78458712 56.09555552 10.94140625 56.09765625 C9.97489136 56.10277222 9.00837646 56.10788818 8.01257324 56.11315918 C7.09907104 56.11328003 6.18556885 56.11340088 5.24438477 56.11352539 C4.44718521 56.115746 3.64998566 56.11796661 2.82862854 56.12025452 C1 56 1 56 0 55 C-0.0935919 53.28134591 -0.11744611 51.55884256 -0.11352539 49.83764648 C-0.11344986 48.73658066 -0.11337433 47.63551483 -0.11329651 46.50108337 C-0.10813522 45.3031868 -0.10297394 44.10529022 -0.09765625 42.87109375 C-0.0962413 41.65172623 -0.09482635 40.4323587 -0.09336853 39.17604065 C-0.08774967 35.2631693 -0.07519396 31.35035419 -0.0625 27.4375 C-0.05748743 24.79231853 -0.0529241 22.14713617 -0.04882812 19.50195312 C-0.03862296 13.00126274 -0.01905121 6.50069467 0 0 Z M2 30 C2 37.59 2 45.18 2 53 C15.86 53 29.72 53 44 53 C44 45.41 44 37.82 44 30 C30.14 30 16.28 30 2 30 Z " fill="#E0BC84" transform="translate(158,137)"/>
</svg>
